{
    "asset" : {
        "generator" : "Khronos glTF Blender I/O v1.0.5",
        "version" : "2.0"
    },
    "scene" : 0,
    "scenes" : [
        {
            "name" : "Scene",
            "nodes" : [
                0,
                1,
                2,
                3,
                4
            ]
        }
    ],
    "nodes" : [
        {
            "mesh" : 0,
            "name" : "dobj",
            "translation" : [
                -3,
                0,
                0
            ]
        },
        {
            "mesh" : 1,
            "name" : "Gem",
            "translation" : [
                3,
                0,
                0
            ]
        },
        {
            "mesh" : 2,
            "name" : "Torus Knot"
        },
        {
            "mesh" : 3,
            "name" : "Plane",
            "translation" : [
                0,
                -2,
                0
            ]
        },
        {
            "name" : "Point",
            "translation" : [
                2,
                3,
                1
            ]
        }
    ],
    "materials" : [
        {
            "doubleSided" : true,
            "name" : "Material.002",
            "pbrMetallicRoughness" : {
                "baseColorFactor" : [
                    0.025253141298890114,
                    0.6038274168968201,
                    0.02198026515543461,
                    1
                ],
                "metallicFactor" : 1,
                "roughnessFactor" : 0
            }
        },
        {
            "doubleSided" : true,
            "name" : "Material.001",
            "pbrMetallicRoughness" : {
                "baseColorFactor" : [
                    0.6038274168968201,
                    0.02198026515543461,
                    0.02198026515543461,
                    1
                ],
                "metallicFactor" : 1,
                "roughnessFactor" : 0.5
            }
        },
        {
            "doubleSided" : true,
            "name" : "Material",
            "pbrMetallicRoughness" : {
                "baseColorFactor" : [
                    0.021979255601763725,
                    0.028792191296815872,
                    0.6038274168968201,
                    1
                ],
                "metallicFactor" : 1,
                "roughnessFactor" : 0
            }
        },
        {
            "doubleSided" : true,
            "name" : "floor",
            "pbrMetallicRoughness" : {
                "baseColorFactor" : [
                    0.4623565673828125,
                    0.4623565673828125,
                    0.4623565673828125,
                    1
                ],
                "metallicFactor" : 0,
                "roughnessFactor" : 0
            }
        }
    ],
    "meshes" : [
        {
            "name" : "dmesh",
            "primitives" : [
                {
                    "attributes" : {
                        "POSITION" : 0,
                        "NORMAL" : 1
                    },
                    "indices" : 2,
                    "material" : 0
                }
            ]
        },
        {
            "name" : "Gem",
            "primitives" : [
                {
                    "attributes" : {
                        "POSITION" : 3,
                        "NORMAL" : 4
                    },
                    "indices" : 5,
                    "material" : 1
                }
            ]
        },
        {
            "name" : "Torus Knot",
            "primitives" : [
                {
                    "attributes" : {
                        "POSITION" : 6,
                        "NORMAL" : 7
                    },
                    "indices" : 8,
                    "material" : 2
                }
            ]
        },
        {
            "name" : "Plane",
            "primitives" : [
                {
                    "attributes" : {
                        "POSITION" : 9,
                        "NORMAL" : 10,
                        "TEXCOORD_0" : 11
                    },
                    "indices" : 12,
                    "material" : 3
                }
            ]
        }
    ],
    "accessors" : [
        {
            "bufferView" : 0,
            "componentType" : 5126,
            "count" : 544,
            "max" : [
                1,
                0.3580000102519989,
                1
            ],
            "min" : [
                -1,
                -0.8619999885559082,
                -1
            ],
            "type" : "VEC3"
        },
        {
            "bufferView" : 1,
            "componentType" : 5126,
            "count" : 544,
            "type" : "VEC3"
        },
        {
            "bufferView" : 2,
            "componentType" : 5123,
            "count" : 906,
            "type" : "SCALAR"
        },
        {
            "bufferView" : 3,
            "componentType" : 5126,
            "count" : 145,
            "max" : [
                0.9238795042037964,
                0.3499999940395355,
                0.9238795042037964
            ],
            "min" : [
                -0.9238795042037964,
                -0.800000011920929,
                -0.9238795042037964
            ],
            "type" : "VEC3"
        },
        {
            "bufferView" : 4,
            "componentType" : 5126,
            "count" : 145,
            "type" : "VEC3"
        },
        {
            "bufferView" : 5,
            "componentType" : 5123,
            "count" : 192,
            "type" : "SCALAR"
        },
        {
            "bufferView" : 6,
            "componentType" : 5126,
            "count" : 640,
            "max" : [
                1.2730578184127808,
                0.7423871159553528,
                1.6015275716781616
            ],
            "min" : [
                -1.749127745628357,
                -0.7396774888038635,
                -1.6014782190322876
            ],
            "type" : "VEC3"
        },
        {
            "bufferView" : 7,
            "componentType" : 5126,
            "count" : 640,
            "type" : "VEC3"
        },
        {
            "bufferView" : 8,
            "componentType" : 5123,
            "count" : 3840,
            "type" : "SCALAR"
        },
        {
            "bufferView" : 9,
            "componentType" : 5126,
            "count" : 4,
            "max" : [
                20,
                0,
                20
            ],
            "min" : [
                -20,
                0,
                -20
            ],
            "type" : "VEC3"
        },
        {
            "bufferView" : 10,
            "componentType" : 5126,
            "count" : 4,
            "type" : "VEC3"
        },
        {
            "bufferView" : 11,
            "componentType" : 5126,
            "count" : 4,
            "type" : "VEC2"
        },
        {
            "bufferView" : 12,
            "componentType" : 5123,
            "count" : 6,
            "type" : "SCALAR"
        }
    ],
    "bufferViews" : [
        {
            "buffer" : 0,
            "byteLength" : 6528,
            "byteOffset" : 0
        },
        {
            "buffer" : 0,
            "byteLength" : 6528,
            "byteOffset" : 6528
        },
        {
            "buffer" : 0,
            "byteLength" : 1812,
            "byteOffset" : 13056
        },
        {
            "buffer" : 0,
            "byteLength" : 1740,
            "byteOffset" : 14868
        },
        {
            "buffer" : 0,
            "byteLength" : 1740,
            "byteOffset" : 16608
        },
        {
            "buffer" : 0,
            "byteLength" : 384,
            "byteOffset" : 18348
        },
        {
            "buffer" : 0,
            "byteLength" : 7680,
            "byteOffset" : 18732
        },
        {
            "buffer" : 0,
            "byteLength" : 7680,
            "byteOffset" : 26412
        },
        {
            "buffer" : 0,
            "byteLength" : 7680,
            "byteOffset" : 34092
        },
        {
            "buffer" : 0,
            "byteLength" : 48,
            "byteOffset" : 41772
        },
        {
            "buffer" : 0,
            "byteLength" : 48,
            "byteOffset" : 41820
        },
        {
            "buffer" : 0,
            "byteLength" : 32,
            "byteOffset" : 41868
        },
        {
            "buffer" : 0,
            "byteLength" : 12,
            "byteOffset" : 41900
        }
    ],
    "buffers" : [
        {
            "byteLength" : 41912,
            "uri" : "data:application/octet-stream;base64,"
        }
    ]
}
