<?xml version="1.0" encoding="utf-8"?>
<!-- Generator: Adobe Illustrator 23.0.3, SVG Export Plug-In . SVG Version: 6.00 Build 0)  -->
<svg version="1.1" id="レイヤー_1" xmlns="http://www.w3.org/2000/svg" xmlns:xlink="http://www.w3.org/1999/xlink" x="0px"
	 y="0px" viewBox="0 0 1024 1024" style="enable-background:new 0 0 1024 1024;" xml:space="preserve">
<style type="text/css">
	.st0{display:none;}
	.st1{display:inline;}
	.st2{fill:none;stroke:#000000;stroke-miterlimit:10;}
</style>
<g class="st0">
	<g class="st1">
		
			<image style="overflow:visible;enable-background:new    ;" width="2562" height="1442" xlink:href="2E464FC2803EA97C.png"  transform="matrix(0.6256 0 0 0.6256 -300.5135 25)">
		</image>
	</g>
</g>
<path d="M179.4,845.2l-2.5-3.7l4.1-6.1l-1-5.1l0.2-0.2c1.2-1.2,4.3-4.1,5.4-4.1c0.5,0,2.7-0.8,4.5-1.5l-5.3-1.8l2.5-3.8h4.5l1.8,2.8
	l5.5-4.6l2.3-5.8l3.7,6.2l-9.4,9.4l-7,3l-2.5,0.8l1.9,4.7l-2.1,5.3L179.4,845.2z M178.1,841.5l1.5,2.3l5.5-3.6l1.9-4.7l-2.1-5.3
	l3.5-1.2l6.9-2.9l8.7-8.7l-2.3-3.8l-1.7,4.2l-6.5,5.4l-2.2-3.2h-3.5l-1.5,2.2l6.7,2.2l-1.3,0.5c-0.8,0.3-5.1,2-6.2,2
	c-0.5,0.1-2.7,1.9-4.5,3.7l1,4.9L178.1,841.5z"/>
<path d="M239.7,770h-4.8l1.1-4.5l-1.1-5.3l24.7-10.1L239.7,770z M236.1,769h3.2l16.1-16.1l-19.3,7.9l0.9,4.7L236.1,769z"/>
<path d="M213.7,797H210v-3.9l11.4-2.5L213.7,797z M211,796h2.3l4.3-3.6l-6.6,1.5V796z"/>
<path d="M229.8,783h-3.7l-1.1-5.5l1.2-3.5h2.6l3.3,4.4L229.8,783z M226.9,782h2.3l1.7-3.4l-2.7-3.6h-1.4l-0.8,2.5L226.9,782z"/>
<path d="M307,680h-7v-4.7l4-4l1-7l3.7-3.7l2.4,5.9l-4.1,7.1V680z M301,679h5v-5.6l3.9-6.9l-1.6-4.1l-2.3,2.3l-1,7l-4,4V679z"/>
<path d="M292.8,656.4l1.3-5.2l2.9-4.9l1-7.7l-2.8-2.8l-2.1-1.1l-1.2-3.7l3.9-1.3l0.9,2.7l2.2-2.2l-0.8-2.4h-4.4l-4.7,5.7
	c0,0.9,0.1,4.9,0.9,6.6c0.9,1.9,3.8,3.8,3.8,3.8l0.1,0.1l1.3,3.8h-5.8l-5-3h-8.2l-4.6-8h6.7l2.7-2.7l-0.9-5.5l-6.1-3.1l2.1-8.3
	l-1-4.9l0-2.7l6.2,1l2.9-5.8l5.9-6.9V595h-6.2l1.3-3.9l5.9-2v-4.4l-5.9-4l-2-7.8h-1.7l-3.8-1.9l-2.6,2.6l1,6l-3,2.3h7.8l3.3,4.4
	l-2.2,5.6h-3.2l-3.2,2.1l-3.8-2.5l3.2-3.2l-0.7-1.4l-6.4,0.9l-7.2,9.3l-2.7-2.7l3.9-6.9l-4.7-2.8l-4.3-4.3l2.3-4.6h5.7l2,6.1
	l3.1,0.8v-3.2l-4.8-5.8l-12.6-4.2l5.7-6.8l3.1,1l3.6-2.7l1.1-4.5l3.5,2.3l3.6,0.9l1.7-2.6v-2.1l4.5-3.4l4.1,4.1l2.5-0.8l1.9-3.8
	l1-5.2l5.4-2.1l6-1l5,0l5.5-2.2l1.1,7.5l2.8,5.7l11.5,1l2-2l7.5-1.1l3.3,6.6l-3.3,5.5h-4.6l0.8,3h16.7l-5.4,2.7l2.7,5.5l6.3,5.3
	l-13.3,14.3l-8.9,20.8l1,12l-6.2,12.5l-4.5-1.1l-3.7-1.9l-3.4,2.5l3,3.9l-6.4,6.4L292.8,656.4z M295,651.7l-0.7,2.9l11-5.5l5.6-5.6
	l-3-4.1l4.6-3.5l4.2,2.1l3.6,0.9l5.8-11.5l-1-12l0-0.1l9.1-21.1l12.6-13.6l-5.7-4.8l-3.2-6.4l2.6-1.3h-13.3l-1.2-5h5.4l2.7-4.5
	l-2.7-5.4l-6.5,0.9l-2,2l-12.5-1l-3.2-6.4l-0.9-6.4l-4.6,1.8h-5l-5.9,1l-4.7,1.9l-1,4.9l-2.1,4.2l-3.5,1.2l-3.9-3.9l-3.5,2.6v1.9
	l-2.3,3.4l-4.5-1.2l-2.4-1.6l-0.9,3.5l-4.4,3.3l-2.9-1l-4.3,5.2l11.4,3.8l5.2,6.2v4.8l-4.9-1.2l-2-5.9h-4.3l-1.7,3.4l3.7,3.7
	l5.4,3.2l-4.1,7.1l1.3,1.3l6.8-8.7l7.6-1.1l1.3,2.6l-2.8,2.8l2.2,1.5l2.8-1.9h2.8l1.8-4.4l-2.7-3.6H270l5-3.7l-1-6l3.4-3.4l4.2,2.1
	h2.3l2,8.2l6.1,4v5.6l-6.1,2l-0.7,2.1h5.8v4.7l-6.1,7.1l-3.1,6.3l-5.8-1v1.4l1,5l-1.9,7.7l5.9,2.9l1.1,6.5l-3.3,3.3h-5.3l3.4,6h7.8
	l5,3h4.2l-0.7-2.2c-0.6-0.4-3.1-2.2-4-4.1c-1-2.1-1.1-7-1.1-7.2v-0.2l5.3-6.3h5.6l1.2,3.6l-3.8,3.8l-1.1-3.3l-2.1,0.7l0.8,2.3l1.9,1
	l3.2,3.2l-1.1,8.4L295,651.7z"/>
<path d="M272.6,606.1l-6.7-2.2l1.1-6.8l9.9-1.1v4.6c0,1.1-2.9,4.1-4.1,5.4L272.6,606.1z M267.1,603.2l5.3,1.8
	c1.8-1.8,3.6-3.9,3.6-4.4l0-3.4l-8.1,0.9L267.1,603.2z"/>
<path d="M242.8,528.1l-5.1-1.3l3.3-4.4l-1-6.1l7.9-4.5l1.2,6.9l-4.1,5.1L242.8,528.1z M239.4,526.2l2.9,0.7l1.9-3.7l3.9-4.8
	l-0.8-5.1l-6.1,3.5l1,5.9L239.4,526.2z"/>
<path d="M237.2,536.1l-2.3-4.6l2.4-3.5l4.8,1.2l-1.2,5.8L237.2,536.1z M236.1,531.5l1.7,3.4l2.3-0.8l0.8-4.2l-3.2-0.8L236.1,531.5z"
	/>
<path d="M258.6,551l-4.7-1.2l2.4-6l3.7,1.2l1.2,4.7L258.6,551z M255.2,549.2l3.3,0.8l1.5-0.7l-0.8-3.3l-2.3-0.8L255.2,549.2z"/>
<path d="M290.6,685l-5.4-1.1l-3.3-5.6l4.6-3.4l7.5,2.1l1.2,4.6L290.6,685z M285.8,683.1l4.6,0.9l3.6-2.7l-0.8-3.4l-6.5-1.9l-3.4,2.6
	L285.8,683.1z"/>
<path class="st2" d="M282.5,555.5"/>
<path d="M386.4,590.7l-7-4.6l-5.8,1l-6,0l4-6h-9.7l1.1-6.4l-3.1-5.1l3.6-4.5h-3.4l-1-3.9l-14.4,3.9l19.5-11l6.8-5.8l1-6l10.5-7.4
	l5.1,6.1l6.7-1l8.9,0l4.6-2.8l-1.1-9.7l3.6,2.4l6.8-4.9l7.2-1l7.2,1l4.1,4.1l3.8,1.9l7.6-2.2l-1.1,6.7l1.9,5.8l4.4,4.4l-9.6,4.3
	l-7.9,6.9l-4.9,7.8v6.2l-7.8-8.9l-8.8-3.9l-8.8,1l-8.8,4.9l-2,4.9l-6.1,8.2H384v5.4L386.4,590.7z M379.6,585l5,3.4l-1.6-5.8V576h4.2
	l5.8-7.7l2-5.1l9.3-5.1l9.1-1l9.3,4.2l6.1,7v-3.8l5.2-8.2l8.1-7.1l8.3-3.7l-3.6-3.6l-2.1-6.2l0.9-5.3l-6.4,1.8l-4.3-2.2l-3.9-3.9
	l-6.8-1l-6.8,1l-7.2,5.1l-2.4-1.6l0.9,8.3l-5.4,3.2h-9.1l-7.2,1l-4.9-5.9l-9.5,6.6l-1,6l-7.1,6.1l-12.6,7.1l7.6-2.1l1,4.1h4.6
	l-4.4,5.5l2.9,4.9l-0.9,5.6h10.3l-4,6h4.1L379.6,585z"/>
<path d="M385.5,464.4l-3.7-6.1l5-2.5l1.2,4.8L385.5,464.4z M383.2,458.7l2.3,3.9l1.4-2.2l-0.8-3.2L383.2,458.7z"/>
<path d="M393.3,457.1l-3.6-3.6l4.6-4.6l3.6,1.2v5.8L393.3,457.1z M391.2,453.5l2.4,2.4l3.3-0.8v-4.2l-2.4-0.8L391.2,453.5z"/>
<path d="M582.1,393.2l6.2-6.2h-2.8c-0.3,0-0.5-0.1-0.7-0.3c-0.6-0.8-0.1-3.3,0.2-4.3l0.1-0.1l3.1-5.1l6.6-5.5l1.3,5l-3,3l0.8,2.4
	h5.5l-3.6,5.9l-5.1,4.1L582.1,393.2z M585.6,386h5.1l-5.8,5.8l5.4-0.8l4.8-3.9l2.5-4.2h-4.5l-1.2-3.6l3-3l-0.7-3l-5.3,4.4l-2.9,4.9
	C585.6,384.1,585.5,385.6,585.6,386z"/>
<path d="M630.1,230.1l-1.2-4.8l2.4-2.3l6.5-2.6l-2.8,4.3l-1,4.2L630.1,230.1z M630.1,225.7l0.8,3.2l2.2-0.7l1-3.9l1.1-1.7l-3.4,1.4
	L630.1,225.7z"/>
<path d="M701.6,113.1l-3.4-1.1l-2.4-2.4l2.4-3.6l4.6,1.2l1.2,3.6L701.6,113.1z M698.8,111.1l2.6,0.9l1.6-1.6l-0.8-2.4l-3.4-0.8
	l-1.6,2.4L698.8,111.1z"/>
<path d="M692.4,107.6l-2.4-6.1v-6.2l2.8,2.8l2.2,1.1v4.5L692.4,107.6z M691,101.4l1.6,4l1.4-2.1v-3.5l-1.9-1l-1.1-1.1V101.4z"/>
<path d="M631.7,514.2l-3.7-2.5V508h3.9l1.2,3.5L631.7,514.2z M629,511.2l2.3,1.5l0.7-1.3l-0.8-2.5H629V511.2z"/>
<path d="M625,521.3v-3.6l3.6,1.8L625,521.3z M626,519.3v0.4l0.4-0.2L626,519.3z"/>
<path d="M618.4,533.6l2-4l2,2L618.4,533.6z M620.6,531.3L620.6,531.3L620.6,531.3L620.6,531.3z"/>
<path d="M619.7,529l6.3-7.9v4.7L619.7,529z M625,523.9l-1.7,2.1l1.7-0.8V523.9z"/>
<path d="M637,538h-4v-5.2l4,1.3V538z M634,537h2v-2.1l-2-0.7V537z"/>
<path d="M645.4,576.1l-2.4-2.4v-4.2l6.5,5.2L645.4,576.1z M644,573.3l1.6,1.6l1.8-0.6l-3.5-2.8V573.3z"/>
<path d="M736,808.2v-8.5l4.2,7.1L736,808.2z M737,803.3v3.5l1.8-0.6L737,803.3z"/>
<path d="M735,830.1v-6.5l-1.4-5.7l4.5,4.5L735,830.1z M735.4,821.1l0.6,2.4v1.4l0.9-2.3L735.4,821.1z"/>
<path d="M492.7,559l-6.3,0l-4-1l-6.2-2.1l-2.2-4.4l0.9-1.7l-5.6-1.9l-3.9-3.9h-3.5l1.3-3.8l2.6-1.8l-3.1-3.1l4.1-2.1l-1.6-2.4
	l-7.3-2.9h4.5l5.8-2.9l6.9-5.9l1.8-4.6l-2.5-2.5l-4.8,2.9l-8.3,0c-1.7-0.7-10.1-4.1-11.2-5.1c-0.5-0.5-3-0.2-4.5,0.1l-10.9,3l-6.1,4
	h-5.2c-0.5,0-2.8,1.5-4.7,2.9l-3.2,3.2l-5.1-3.1l-6.7,1.9l-3.1,3.1h-7.9l-1,2l-14.9,1l-1,5.1l-6.4-1.1l-3.4,1.1l-2-6.1h-3.5
	l-4.7,2.8l-1.9,5.8l-1,6.1l-1.1,2.3h-5.4l-5.1-3.1l-6.8-2.9l-11.6,1l-2,3h-6.5l-3.9-3.9l-2.8,1.9h-3.4l-3.4-4.5l3-4l-1.8-1.8V525
	h5.5l5.9-1l4.9,0l3-2.9l6.8-3.9l2.1-5.2l8.1,1l3.9-4.9l5-4l20.9-15l1.8-2.7l-1.1-3.3l8.5-2.1l6.9-2l3.1-2.1l4.2,1h5.1l-1.7,1.7v2.4
	l5.4,0.9l4-3h10.2l6,1l6.9-1l5.9-2l6-3h17.3l0.8,0.8l3.7-2.7l5.2-3.1l4.3,1.1l2.5,2.5l-5.2,5.2v1.4l3.4,0.9l3.9-2l2.3,0l4.9,2h6.7
	l1.7-1.7v-3.2l6-1v-2.9l2.7-1.4l1.6,3.1l0.7-3.3l-4.1-3.1l1-2.1l-2-2l2.3-4.5l2.9-2.9l1-4.1l7.2-3.1l9.9-8.9l4.9-5.9l2-7.8v-6.6
	l-3.1-1l2.2-6.6l4.2-4.2h6.1c1.8-1,7.1-4,8.1-4c0.8,0,5.3-0.7,6.9-1l0.6-0.1v4.1h-3.1l-0.8,2.5l1.1,3.4l-7.4,1.1l-3.2,4.2l-3.8-2.8
	l-0.7,2.9l3.5,2.6l2.6-1.3l-1.2,7l-0.9,2.8l2.7,2.7l6.7,1l4.6-1.9l1-4l5.3-3.2l10.9-2l6.1-4l9.9-2l9.9-5.9l4.9-4.9l5-8.9l4.2-5.2
	l5.1-3l8.9-3l5.8-3.9l1.9-5.8l2-7l4.2-8.2l5.9-4.9l3-6.9l3-5l2.1-9.1l2.9-3.9v-13.7l-2.6-3.5l-2.8,1.9l-5.4-2.2l-2.5-5.1l5.8,1.2
	l2.7-1.8l2.9-4.8l1-6.7l-2-3l-1-2.9l-2-2l-1.3-2.5l3.4-1.1l3.1-5.1h5.1l4.7-2.8l1-5.8l0-3.6l-3.8-1.3l4.8-2.4v-3.4l5.5,2.2l1.9-1
	h3.3l3.4,2.3l-1,5.2l2.9,6.7l2.4,0.8l2.6-3.5l-1.4-5.5l3.2,3.2l4.9,3l2.7,1.8l2.7-2.7l1.9-3.9l0.9-5.7l-2.5-2.5l-1.6,1.6l-3.2,2.2
	l-5-1l-4,3h-2.8l1.1-6.7l3-6l1.2-4.6l3.5,2.3h3l3.1,2.1l3.9,2.9h4.7l6.6-5.3l-5,9.9v14.9l1,6.8l2.8,5.6l3.9-1l6.2,7.2l3.3,5.5
	l-1.9,0.9l3.4,3.4H723v1.2l6,3v4.2l1,4l-0.9,6l2.5-1.7l0.3,0.5c0.8,1.6,1.6,3.6,1.2,4.4c-0.1,0.2-0.4,0.4-0.6,0.4
	c-0.4,0-1.5,1.2-2.5,2.7v5.9h-1c0,0,0.1,0.2,0.2,0.3c0.2,0.1,0.4,0,0.4,0c-0.4,0.3-2.2,3.2-3.7,5.9l-3.1,6.2l-5.8,1v3.8l-5.1,5.1
	l-1.8,2.7l1.9,3.8v4.1l1.2,9.4l-4-4l-3.8-1.9h-5.7l-6.8,4.9l-3.9,5.8l-1,6.7l2.9,3.9l2,5.2v10l-1,10l-1,8.3l-7.1,3l-6.8,14.6l1,3
	l-2,4.1v3.8l2.9,7.9l4,6l5.7,6.8h-9l-4.8,1.9l-3.9,4.8l-1.9,5.8v5.1l-3.3,3.3l-0.2,0c-0.3,0-7,1-8.1,1c-0.3,0-1.5,0.9-2.2,1.4
	c-1.3,1-2.1,1.5-2.7,1.6c-0.3,0.4-0.6,2.4-0.6,4.5v0.5h-4.6l-5.3-2.7l4.8-1.2l-0.9-3.6l0-3.2l0.9-2.7l-2.1-2.1l3.4-4.5l4.9-2.9
	l2.7-3.6l-3.5-3.5l-2.9,1l-2.9-1l-2.3,1.5l2,2l-4,3l0.8,0.8l-2.1,4.2v3.4h3.7l-2.8,2.8l-1.1,3.4l-2.6-1.3l-3-4.9l-6.7-1l-7.5,1.9
	v3.8l-2.9,3.9l1.9,3.8v3.3l-5.1,6.1l-4.2,4.2l-5.6-1.1l-1.1-4.5l2-5l-1.1-5.3l4.6-0.9l-3.2-3.2l-7.5,0.9l-2,4.9l-6,3l-2,4l-4.8,2.9
	l1.1,5.5l-10.7-3.2h-18.9l-9.9,3l-7.6,1.1v-3.9l6.3-2.1l4.4-0.9l-1.5-3l-4.8,1.9l-5.5-3.3V504h-1.1l-0.8,2.5l0.9,2.8l2.5,3.7h-3.1
	l-3.2-2.2l-3.1-4.2l1.1-5.4l1.8-1.8l-0.4-0.4l-5.5,1.8l-1.9,2.9l-2.9,5.9l-0.9,3.8l1.8,3.6l7.7,1.9l4.8-1.2l-1.1,3.4l3.1,1l-2.3,3.5
	l-1.1,3.4l-5.3-1.1l-6.9,1l-8.8,3l-4.6,3.6l3,4l-4.3,4.3l-5.9,4l-3,8L492.7,559z M486.6,558h5.8l3.7-2.8l3-8l6.1-4.1l3.6-3.6l-3-4
	l5.5-4.4l9-3l7.2-1l4.7,0.9l0.9-2.7l1.6-2.5l-2.9-1l0.9-2.6l-3.2,0.8l-8.3-2.1l-2.2-4.4l1.1-4.3l3-6l2.1-3.2l6.5-2.2l1.6,1.6
	l-2.2,2.2l-0.9,4.6l2.8,3.8l2.8,1.9h0.9l-1.5-2.3l-1.1-3.2l1.2-3.5h2.9v3.2l4.5,2.7l5.2-2.1l2.5,5l-5.6,1.1l-5.6,1.9v2.1l6.4-0.9
	l10.1-3l19.1,0l9.2,2.8l-0.9-4.5l5.2-3.1l2-4l6-3l2-5.1l8.5-1.1l4.8,4.8l-5.4,1.1l0.9,4.7l-2,5l0.9,3.5l4.4,0.9l3.8-3.8l4.9-5.8
	v-2.7l-2.1-4.2l3.1-4.1v-4.2l8.5-2.1l7.3,1l3,5.1l1.4,0.7l0.9-2.6l1.2-1.2H640v-4.6l1.9-3.8l-1.2-1.2l4-3l-2-2l3.7-2.5l3.1,1l3.1-1
	l4.5,4.5l-3.4,4.5l-4.9,2.9l-2.7,3.6l1.9,1.9l-1.1,3.2v2.9l1.1,4.4l-3.2,0.8l2.7,1.3h3.4c0-3.3,0.5-5,1.5-5c0.3,0,1.5-0.9,2.2-1.4
	c1.3-1,2.2-1.6,2.8-1.6c0.8,0,5.7-0.7,7.8-1l2.7-2.7l0-5l2.1-6.2l4.1-5.1l5.3-2.1h6.9l-4.3-5.2l-4.1-6.1l-3-8.2v-4.1l2-3.9l-1-3
	l7.2-15.4l6.9-3l1-7.7l1-10l0-9.9l-1.9-4.8l-3.1-4.1l1.1-7.4l4.1-6.1l7.1-5.1h6.3l4.2,2.1l2,2l-0.8-6.6l0-3.9l-2.1-4.2l2.2-3.2
	l4.9-4.9v-4.2l6.2-1l2.9-5.8c2.4-4.2,3.4-5.7,3.9-6.2v-5.8l0.1-0.1c0.6-0.9,2.1-2.9,3.2-3.2c0-0.5-0.4-1.6-1-2.8l-3.5,2.3l1.1-8
	l-1-4v-3.7l-6-3V303h1.3l-2.6-2.6l2.1-1.1l-2.7-4.5l-5.8-6.7l-4.1,1l-3.2-6.5l-1-7l0-15.2l3-6.1l-3.4,2.7h-5.3l-4.1-3.1l-2.9-1.9h-3
	l-2.5-1.7l-0.9,3.4l-3,5.9l-0.9,5.3h1.2l4-3l5,1l2.8-1.9l2.3-2.3l3.5,3.5l-1.1,6.4l-2.1,4.1l-3.3,3.3l-3.3-2.2l-5.1-3.1l-0.7-0.7
	l0.6,2.5l-3.4,4.5l-3.6-1.2l-3.1-7.3l1-4.8l-2.6-1.7h-2.7l-2.1,1l-4.5-1.8v2.6l-3.2,1.6l2.2,0.7v4.4l-1,6.3l-5.3,3.2h-4.9l-2.9,4.9
	l-2.6,0.9l0.7,1.4l2,2l1,3l2.1,3.1l-1.1,7.4l-3.2,5.2l-3.2,2.1l-4.2-0.8l1.5,2.9l4.6,1.8l3.2-2.1l3.4,4.5v14.3l-3,4l-2,9l-3,5l-3,7
	l-6,5l-4,7.9l-2,6.9l-2.1,6.2l-6.3,4.2l-8.9,3l-4.9,2.9l-3.9,4.9l-5,9l-5.1,5.1l-10.2,6.1l-9.9,2l-6.1,4l-10.9,2l-4.7,2.8l-1,4
	l-5.4,2.1l-7.3-1l-3.3-3.3l1.1-3.3l0.8-5l-1.4,0.7l-4.5-3.4l1.3-5.1l4.2,3.2l2.8-3.8l6.6-0.9l-0.9-2.6l1.2-3.5h2.9v-1.9
	c-1.6,0.3-5.6,0.9-6.5,0.9c-0.6,0-4.4,2-7.8,3.9l-0.1,0.1h-5.9l-3.8,3.8l-1.8,5.4l2.9,1l0,7.5l-2.1,8.2l-5,6l-10.2,9.1l-6.8,2.9
	l-1,3.9l-3,3l-1.8,3.6l2,2l-1,1.9l3.9,2.9l-1.3,6.7l-2.4-4.9l-1.3,0.6v3.1l-6,1v2.8l-2.3,2.3l-7.4,0l-4.9-2h-1.8l-4.1,2l-4.6-1.1
	v-2.6l4.8-4.8l-1.5-1.5l-3.7-0.9l-4.8,2.9l-4.3,3.2l-1.2-1.2h-16.7l-5.9,2.9l-6.1,2l-7.2,1l-6.1-1l-9.8,0l-4,3l-6.6-1.1v-3.6
	l0.3-0.3l-2.9,0l-3.8-0.9l-3,1.9l-7,2l-7.5,1.9l0.9,2.7l-2.3,3.3l-21,15l-4.9,3.9l-4.1,5.2l-7.9-1l-1.9,4.8l-7.1,4.1l-3.1,3.1h-5.2
	l-5.9,1l-4.6,0v3.3l2.2,2.2l-3,4l2.6,3.5h2.6l3.2-2.1l4.1,4.1h5.5l2-3l12.4-1l7.1,3l4.9,3h4.6l0.8-1.7l1-5.9l2.1-6.3l5.3-3.2h4.5
	l2,5.9l2.6-0.9l5.6,0.9l1-4.9l15.1-1l1-2h8.1l2.9-2.9l7.3-2.1l4.9,2.9l2.7-2.7c1-0.8,4.3-3.1,5.4-3.1h4.8l6-4l11-3
	c0.7-0.2,4.3-1,5.5,0.1c0.7,0.7,6.9,3.3,10.7,4.9h7.8l5.2-3.1l3.5,3.5l-2.2,5.4l-7.2,6.1l-5.9,2.9l3,1.2l2.4,3.6l-3.9,1.9l2.9,2.9
	l-3.4,2.2l-0.7,2.2h2.5l4.1,4.1l6.4,2.1l-1.1,2.3l1.8,3.6l5.8,1.9L486.6,558z"/>
<path d="M660.6,255.1l-5.5-2.2l-4.3-4.3l3.2-6.3l2.9-4.9v-6.7l-3.7-3.7h-3.1l-2-3h-4.1l-1.2-4.7l3.1-3.1v-9l3.3-3.3h6l4-4h4l4-4
	l4.7-0.9v-2.5l-2.8-4.7l-4.2-1v-4.7l6.5-4.3l12.1,8l8.2-3.1l1.1,3.2l5.5,0.9l3.8-1.9l4.8-3.8v-3.6l-2-4v-5l-2.1-3.2l3.4-4.5h5
	l3.7-3.7l1-7.8l1-6.1l4-9.9l-1-10.8l-6-10.1l-1-6.2l3-4v-4.6l5.5,2.2l2.5-0.8V96h3.7l7.1,6.1l8,6l7.1,6.1l5.9,9.9l8.9,4.9l11.1,8
	l9.9,5.9l9.9,3l11.9,3l10.5-1v4.3l2.8,2.8l7.8,2.9l8.8-2l6.9-4l7.9-4.9l6.6-7.7l1.3,5.1l-2.2,4.3l-3,3l-3.9,4.9l-2.9,6.7l3.7,4.6
	l7.2,1v4.2l-4.7-1.9l1.7,5.9l3.8,3.8l4.6,0.9l5-5h9l-1.5,2.9l-0.2,0.1c-0.4,0.1-4.1,1-5.1,1c-0.6,0-2.4,1.1-3.6,1.8l-2.1,4.2h-6.3
	l-7.7,1l-5,6h-6.5l-1.9-2.8l-2.3,1.5l1.1,3.3l-10.9,0l-7.8-2.9l-8.8,2.9l-7.9,4l-7.9,6l-5.9,6l-5.9,6.9l-1,6.9l-2,6v6l-7.8-6.7
	c-0.8-0.4-6.1-3.1-7.1-4.1c-0.6-0.6-4.3-1.5-6.7-1.9l-8.1-3l-11.1-6l-10-5l-8.8-2.9l-9.8,1l-7.9,4l-6.9,4.9l-3.4,4.5l-3.4-4.5
	l-3-4.9l-7.7-3.9l-7.7,1l-5.7,5.7v5.4l2.8,0.9l3,2l4.8,2.9l6.1-2l5.2,5.2l4.9,3.9l7.3,2.1v3.7l-4.3,2.1l-3.2,1.1l-6.1-2h-3.2l-1-2
	h-3.3l-1,2.9l-5.9,2l-1,7l-5.2,1L660.6,255.1z M655.8,252.1l4.6,1.8l2.9-2.9l4.8-1l1-7l6.1-2l1-3.1h4.7l1,2l2.8,0l5.8,1.9l2.8-0.9
	l3.7-1.8v-2.3l-6.8-2l-5-4l-4.8-4.8l-5.9,2l-5.2-3.1l-3-2l-3.3-1.1v-6.6l6.3-6.3l8.3-1l8.3,4.1l3.1,5.1l2.6,3.4l2.7-3.6l7-5l8.2-4.1
	l10.1-1l9.1,3l10.1,5l11,6l7.9,3c0.9,0.1,6.1,1.1,7.2,2.1c0.8,0.8,5.2,3.1,6.9,3.9l0.1,0.1l6.2,5.3l0-4.1l2-6l1-7.1l6.1-7.1l6-6
	l8.1-6l8.1-4l9.2-3.1l8.1,3h9.2l-0.9-2.7l3.7-2.5l2.1,3.2h5.5l5-6l8.2-1l5.8,0l1.9-3.8l0.1-0.1c0.5-0.3,3.2-2.1,4.3-2.1
	c0.7,0,3.4-0.6,4.7-0.9l0.5-1.1h-7l-5,5l-5.4-1.1l-4.2-4.2l-2.3-8.1l5.3,2.1v-1.8l-6.8-1l-4.3-5.4l3.2-7.4l4-5l3-3l1.9-3.8l-0.7-2.9
	l-5.5,6.4l-8,5l-7.2,4.1l-9.1,2l-8.3-3.2l-3.1-3.1v-3.7l-9.5,1l-0.1,0l-12-3l-10.1-3.1l-10-6l-11-8l-9.1-5l-6-10l-6.9-5.9l-8-6
	l-6.9-5.9H725v2.9l-3.5,1.2l-4.5-1.8v3.4l-3,4l0.9,5.7l6,10.1l1,11.1l-4,10.1l-1,5.9l-1,8.2l-4.3,4.3h-5l-2.6,3.5l1.9,2.8v5l2,4v4.4
	l-5.3,4.2l-4.1,2.1l-6.5-1.1l-0.9-2.8l-7.8,2.9l-11.9-8l-5.5,3.7v3.3l3.8,1l3.2,5.3v3.5l-5.3,1.1l-4,4h-4l-4,4h-6l-2.7,2.7v9
	l-2.9,2.9l0.8,3.3h3.9l2,3h2.9l4.3,4.3v7.3l-3.1,5.1l-2.8,5.6L655.8,252.1z"/>
</svg>
