<?xml version="1.0" encoding="utf-8"?>
<!-- Generator: Adobe Illustrator 23.0.3, SVG Export Plug-In . SVG Version: 6.00 Build 0)  -->
<svg version="1.1" id="レイヤー_1" xmlns="http://www.w3.org/2000/svg" xmlns:xlink="http://www.w3.org/1999/xlink" x="0px"
	 y="0px" viewBox="0 0 1920 1080" style="enable-background:new 0 0 1920 1080;" xml:space="preserve">
<path d="M4.2-3.9l8.1-8.1L12-12.4L3.9-4.2h-7.8l-8.1-8.1l-0.4,0.4l8.1,8.1v7.8l-8.1,8.1l0.4,0.4l8.1-8.1h7.8l8.1,8.1l0.4-0.4
	L4.2,3.9V-3.9z M3.8,3.4L0.4,0l3.4-3.4V3.4z M3.4-3.8L0-0.4l-3.4-3.4H3.4z M-3.8-3.4L-0.4,0l-3.4,3.4V-3.4z M-3.4,3.8L0,0.4l3.4,3.4
	H-3.4z"/>
</svg>
