<?xml version="1.0" encoding="UTF-8"?>
<svg id="_layer01" data-name="layer01" xmlns="http://www.w3.org/2000/svg" version="1.1" viewBox="0 0 208 32">
  <defs>
    <style>
      .st0 {
        fill: none;
        stroke: #FFF;
        stroke-linecap: round;
        stroke-linejoin: round;
        stroke-width: 3px;
      }
    </style>
  </defs>
  <path class="st0" name="V" d="M32,8l-12,16-12-16"/>
  <path class="st0" name="A" d="M32,24l12-16,12,16h-24Z"/>
  <path class="st0" name="N" d="M64,24v-16l16,16v-16"/>
  <path class="st0" name="I" d="M88,8v8M88,21.3v2.7"/>
  <path class="st0" name="L" d="M112,24h-12c-4,0-4-4-4-4v-12"/>
  <path class="st0" name="L" d="M136,24h-12c-4,0-4-4-4-4v-12"/>
  <path class="st0" name="A" d="M144,24l12-16,12,16h-24Z"/>
  <path class="st0" name="B" d="M176,24v-13.6c0-1.3,1.1-2.4,2.4-2.4h8.9c.5,0,.9.1,1.3.4l2.4,1.6c.7.4,1.1,1.2,1.1,2h0c0,.9-.4,1.7-1.1,2.1h0c-1.4.9-1.4,3,0,3.9h0c.7.4,1.1,1.2,1.1,2h0c0,.9-.4,1.7-1.1,2.1l-2.4,1.6c-.4.3-.8.4-1.3.4h-7.3"/>
  <path class="st0" name="." d="M200,21.3v2.7"/>
</svg>