<?xml version="1.0" encoding="utf-8"?>
<!-- Generator: Adobe Illustrator 23.0.3, SVG Export Plug-In . SVG Version: 6.00 Build 0)  -->
<svg version="1.1" id="レイヤー_1" xmlns="http://www.w3.org/2000/svg" xmlns:xlink="http://www.w3.org/1999/xlink" x="0px"
	 y="0px" viewBox="0 0 1024 1024" style="enable-background:new 0 0 1024 1024;" xml:space="preserve">
<style type="text/css">
	.st0{display:none;}
	.st1{display:inline;}
</style>
<g class="st0">
	<g class="st1">
		
			<image style="overflow:visible;enable-background:new    ;" width="2562" height="1442" xlink:href="2E464FC2803EA97C.png"  transform="matrix(0.6256 0 0 0.6256 -300.5135 25)">
		</image>
	</g>
</g>
<g>
	<path d="M193.5,822.5l6-5l2-5l3,5l-5,5l-4,4l-7,3l-3,1l2,5l-2,5l-6,4l-2-3l4-6l-1-5c0,0,4-4,5-4s6-2,6-2l-6-2l2-3h4L193.5,822.5z"
		/>
	<polygon points="257.5,751.5 235.5,760.5 236.5,765.5 235.5,769.5 239.5,769.5 	"/>
	<polygon points="219.5,791.5 210.5,793.5 210.5,796.5 213.5,796.5 	"/>
	<polygon points="226.5,774.5 225.5,777.5 226.5,782.5 229.5,782.5 231.5,778.5 228.5,774.5 	"/>
	<polygon points="308.5,661.5 310.5,666.5 306.5,673.5 306.5,679.5 300.5,679.5 300.5,675.5 304.5,671.5 305.5,664.5 	"/>
	<path d="M257.5,584.5l5,3l-4,7l2,2l7-9l7-1l1,2l-3,3l3,2l3-2h3l2-5l-3-4h-4h-5l4-3l-1-6l3-3l4,2h2l2,8l6,4v5l-6,2l-1,3h6v4l-6,7
		l-3,6l-6-1v2l1,5l-2,8l6,3l1,6l-3,3h-6l4,7h8l5,3h5l-1-3c0,0-3-2-4-4s-1-7-1-7l5-6h5l1,3l-3,3l-1-3l-3,1l1,3l2,1l3,3l-1,8l-3,5
		l-1,4l12-6l6-6l-3-4l4-3l4,2l4,1l6-12l-1-12l9-21l13-14l-6-5l-3-6l4-2h-11h-4l-1-4h5l3-5l-3-6l-7,1l-2,2l-12-1l-3-6l-1-7l-5,2h-5
		l-6,1l-5,2l-1,5l-2,4l-3,1l-4-4l-4,3v2l-2,3l-4-1l-3-2l-1,4l-4,3l-3-1l-5,6l12,4l5,6v4l-4-1l-2-6h-5l-2,4L257.5,584.5z"/>
	<path d="M267.5,597.5l9-1c0,0,0,3,0,4s-4,5-4,5l-6-2L267.5,597.5z"/>
	<polygon points="247.5,512.5 240.5,516.5 241.5,522.5 238.5,526.5 242.5,527.5 244.5,523.5 248.5,518.5 	"/>
	<polygon points="237.5,528.5 241.5,529.5 240.5,534.5 237.5,535.5 235.5,531.5 	"/>
	<polygon points="256.5,544.5 254.5,549.5 258.5,550.5 260.5,549.5 259.5,545.5 	"/>
	<polygon points="286.5,675.5 293.5,677.5 294.5,681.5 290.5,684.5 285.5,683.5 282.5,678.5 	"/>
	<path d="M282.5,555.5"/>
	<polygon points="348.5,563.5 364.5,554.5 371.5,548.5 372.5,542.5 382.5,535.5 387.5,541.5 394.5,540.5 403.5,540.5 408.5,537.5 
		407.5,528.5 410.5,530.5 417.5,525.5 424.5,524.5 431.5,525.5 435.5,529.5 439.5,531.5 446.5,529.5 445.5,535.5 447.5,541.5 
		451.5,545.5 442.5,549.5 434.5,556.5 429.5,564.5 429.5,569.5 422.5,561.5 413.5,557.5 404.5,558.5 395.5,563.5 393.5,568.5 
		387.5,576.5 383.5,576.5 383.5,582.5 385.5,589.5 379.5,585.5 373.5,586.5 368.5,586.5 372.5,580.5 366.5,580.5 362.5,580.5 
		363.5,574.5 360.5,569.5 364.5,564.5 360.5,564.5 359.5,560.5 	"/>
	<polygon points="387.5,460.5 385.5,463.5 382.5,458.5 386.5,456.5 	"/>
	<polygon points="394.5,449.5 397.5,450.5 397.5,455.5 393.5,456.5 390.5,453.5 	"/>
	<path d="M594.5,372.5l-6,5l-3,5c0,0-1,4,0,4s4,0,4,0l-2,2l-4,4l7-1l5-4l3-5h-5l-1-3l3-3L594.5,372.5z"/>
	<polygon points="631.5,223.5 629.5,225.5 630.5,229.5 633.5,228.5 634.5,224.5 636.5,221.5 	"/>
	<polygon points="698.5,106.5 696.5,109.5 698.5,111.5 701.5,112.5 703.5,110.5 702.5,107.5 	"/>
	<polygon points="690.5,96.5 690.5,101.5 692.5,106.5 694.5,103.5 694.5,99.5 692.5,98.5 	"/>
	<polygon points="631.5,508.5 628.5,508.5 628.5,511.5 631.5,513.5 632.5,511.5 	"/>
	<polygon points="625.5,518.5 625.5,520.5 627.5,519.5 	"/>
	<polygon points="620.5,530.5 619.5,532.5 621.5,531.5 	"/>
	<polygon points="625.5,522.5 621.5,527.5 625.5,525.5 	"/>
	<polygon points="633.5,533.5 633.5,537.5 636.5,537.5 636.5,534.5 	"/>
	<polygon points="643.5,570.5 643.5,573.5 645.5,575.5 648.5,574.5 	"/>
	<path d="M736.5,801.5c0,1,0,6,0,6l3-1L736.5,801.5z"/>
	<polygon points="734.5,819.5 735.5,823.5 735.5,827.5 737.5,822.5 	"/>
	<path d="M537.5,506.5l5,3l5-2l2,4l-5,1l-6,2v3l7-1l10-3h10h9l10,3l-1-5l5-3l2-4l6-3l2-5l8-1l4,4l-5,1l1,5l-2,5l1,4l5,1l4-4l5-6v-3
		l-2-4l3-4v-4l8-2l7,1l3,5l2,1l1-3l2-2h-3v-4l2-4l-1-1l4-3l-2-2l3-2l3,1l3-1l4,4l-3,4l-5,3l-3,4l2,2l-1,3v3l1,4l-4,1l4,2h4
		c0,0,0-5,1-5s4-3,5-3s8-1,8-1l3-3v-5l2-6l4-5l5-2h8l-5-6l-4-6l-3-8v-4l2-4l-1-3l7-15l7-3l1-8l1-10v-10l-2-5l-3-4l1-7l4-6l7-5h6l4,2
		l3,3l-1-8v-4l-2-4l2-3l5-5v-4l6-1l3-6c0,0,4-7,4-6s0-6,0-6s2-3,3-3s-1-4-1-4l-3,2l1-7l-1-4v-4l-6-3v-2h2l-3-3l2-1l-3-5l-6-7l-4,1
		l-3-6l-1-7v-8v-7l4-8l-5,4h-5l-4-3l-3-2h-3l-3-2l-1,4l-3,6l-1,6h2l4-3l5,1l3-2l2-2l3,3l-1,6l-2,4l-3,3l-3-2l-5-3l-2-2l1,4l-3,4
		l-3-1l-3-7l1-5l-3-2h-3l-2,1l-5-2v3l-4,2l3,1v4l-1,6l-5,3h-5l-3,5l-3,1l1,2l2,2l1,3l2,3l-1,7l-3,5l-3,2l-5-1l2,4l5,2l3-2l3,4v7v7
		l-3,4l-2,9l-3,5l-3,7l-6,5l-4,8l-2,7l-2,6l-6,4l-9,3l-5,3l-4,5l-5,9l-5,5l-10,6l-10,2l-6,4l-11,2l-5,3l-1,4l-5,2l-7-1l-3-3l1-3l1-6
		l-2,1l-4-3l1-4l4,3l3-4l7-1l-1-3l1-3h3v-3c0,0-6,1-7,1s-8,4-8,4h-6l-4,4l-2,6l3,1v7l-2,8l-5,6l-10,9l-7,3l-1,4l-3,3l-2,4l2,2l-1,2
		l4,3l-1,5l-2-4l-2,1v3l-6,1v3l-2,2h-7l-5-2h-2l-4,2l-4-1v-2l3-3l2-2l-2-2l-4-1l-5,3l-4,3l-1-1h-6h-11l-6,3l-6,2l-7,1l-6-1h-10l-4,3
		l-6-1v-3l1-1h-4l-4-1l-3,2l-7,2l-8,2l1,3l-2,3l-7,5l-7,5l-7,5l-5,4l-4,5l-8-1l-2,5l-7,4l-3,3h-5l-6,1h-5v4l2,2l-3,4l3,4h3l3-2l4,4
		h6l2-3l12-1l7,3l5,3h5l1-2l1-6l2-6l5-3h4l2,6l3-1l6,1l1-5l15-1l1-2h8l3-3l7-2l5,3l3-3c0,0,4-3,5-3s5,0,5,0l6-4l11-3c0,0,4-1,5,0
		s11,5,11,5h8l5-3l3,3l-2,5l-7,6l-6,3h-2l5,2l2,3l-4,2l3,3l-3,2l-1,3h3l4,4l6,2l-1,2l2,4l6,2l4,1h6l4-3l3-8l6-4l4-4l-3-4l5-4l9-3
		l7-1l5,1l1-3l2-3l-3-1l1-3l-4,1l-8-2l-2-4l1-4l3-6l2-3l6-2l1,1l-2,2l-1,5l3,4l3,2h2l-2-3l-1-3l1-3h2V506.5z"/>
	<path d="M716.5,98.5v4l-3,4l1,6l6,10l1,11l-4,10l-1,6l-1,8l-4,4h-5l-3,4l2,3v5l2,4v4l-5,4l-4,2l-6-1l-1-3l-8,3l-6-4l-6-4l-3,2l-3,2
		v4l4,1l3,5v3l-5,1l-4,4h-4l-4,4h-6l-3,3v3v6l-3,3l1,4h4l2,3h3l4,4v7l-3,5l-3,6l4,4l5,2l3-3l5-1l1-7l6-2l1-3h4l1,2h3l6,2l3-1l4-2v-3
		l-7-2l-5-4l-5-5l-6,2l-5-3l-3-2l-3-1v-6l6-6l8-1l8,4l3,5l3,4l3-4l7-5l8-4l10-1l9,3l10,5l11,6l8,3c0,0,6,1,7,2s7,4,7,4l7,6v-5l2-6
		l1-7l6-7l6-6l8-6l8-4l9-3l8,3h7h3l-1-3l3-2l2,3h6l5-6l8-1h6l2-4c0,0,3-2,4-2s5-1,5-1l1-2h-8l-5,5l-5-1l-4-4l-2-7l5,2v-3l-7-1l-4-5
		l3-7l4-5l3-3l2-4l-1-4l-6,7l-8,5l-7,4l-9,2l-8-3l-3-3v-4l-10,1l-12-3l-10-3l-10-6l-11-8l-9-5l-6-10l-7-6l-8-6l-7-6h-3v3l-3,1
		L716.5,98.5z"/>
</g>
</svg>
