<?xml version="1.0" encoding="utf-8"?>
<!-- Generator: Adobe Illustrator 23.0.3, SVG Export Plug-In . SVG Version: 6.00 Build 0)  -->
<svg version="1.1" id="レイヤー_1" xmlns="http://www.w3.org/2000/svg" xmlns:xlink="http://www.w3.org/1999/xlink" x="0px"
	 y="0px" viewBox="0 0 1920 1080" style="enable-background:new 0 0 1920 1080;" xml:space="preserve">
<style type="text/css">
	.st0{fill:none;}
</style>
<g id="UI">
	<g>
		<path class="st0" d="M37.5,22.99c0.08,0.03,0.17,0.24,0.17,0.27c0.03,0.27,0.14,1.08,0.14,1.13c0,0.24,0,0.38-0.1,0.38
			c-0.11,0-0.28-0.1-0.34-0.29c-0.17-0.5-0.55-0.92-0.69-1.01c-0.25-0.2-0.59-0.32-0.99-0.32c-0.94,0-1.61,0.7-1.61,1.64
			c0,0.99,0.71,1.43,1.95,2.26c1.08,0.73,1.93,1.46,1.93,2.72c0,0.7-0.39,1.48-1.15,1.98c-0.45,0.29-1.27,0.5-1.9,0.5
			c-0.45,0-1.4-0.15-1.83-0.36c-0.14-0.08-0.32-0.39-0.32-0.45c-0.07-0.48-0.21-1.09-0.21-1.32c0-0.06,0.14-0.27,0.2-0.27
			c0.11,0,0.32,0.36,0.52,0.8c0.36,0.77,1.29,1.12,1.82,1.12c0.97,0,1.69-0.69,1.69-1.69c0-0.59-0.28-1.22-1.75-2.16
			C33.84,27.15,33,26.34,33,25.15c0-0.66,0.29-1.29,0.77-1.71c0.43-0.39,1.09-0.69,2.07-0.69C36.52,22.74,37.25,22.95,37.5,22.99z"
			/>
		<path class="st0" d="M42.95,26.54c0.92,0,1.42-0.17,1.89-0.17c0.06,0,0.1,0.06,0.1,0.1c0,0.17-0.22,0.29-0.28,0.31
			c-0.76,0.17-0.99,0.31-1.62,0.74c-0.42,0.31-1.08,0.97-1.13,1.06c-0.03,0.06-0.03,0.11-0.01,0.14c0.48,0.59,1.82,2.05,2.26,2.48
			c0.25,0.24,0.5,0.41,0.95,0.5c0.24,0.06,0.34,0.17,0.34,0.22c0,0.14-0.18,0.17-0.35,0.17c-0.32,0-1.02-0.08-1.75-0.08H42.7
			c-0.2,0-0.35-0.06-0.35-0.18c0-0.08,0.13-0.15,0.31-0.2c0.29-0.07,0.34-0.2,0.18-0.39c-0.15-0.2-0.88-0.97-1.58-1.78
			c-0.14-0.17-0.28-0.32-0.35-0.32c-0.06,0-0.07,0.08-0.07,0.11c-0.07,0.18-0.07,1.53,0.01,1.95c0.04,0.28,0.14,0.36,0.52,0.46
			c0.17,0.04,0.31,0.1,0.31,0.21c0,0.13-0.18,0.15-0.34,0.15c-0.35,0-0.81-0.03-1.16-0.03c-0.49,0-0.87,0.06-1.18,0.06
			c-0.17,0-0.32-0.04-0.32-0.15c0-0.1,0.14-0.15,0.32-0.21c0.56-0.14,0.66-0.27,0.73-0.62c0.06-0.27,0.1-2.94,0.1-4.8
			c0-1.81-0.04-2.59-0.08-2.96c0-0.04-0.03-0.13-0.42-0.36c-0.11-0.08-0.18-0.15-0.18-0.2c0-0.06,0.07-0.14,0.18-0.18
			c0.14-0.04,0.84-0.2,1.22-0.43c0.14-0.08,0.21-0.13,0.28-0.13c0.03,0,0.11,0.13,0.1,0.18c-0.07,0.34-0.13,3.95-0.13,5.15
			c0,0.55,0,1.29,0.04,1.41c0.03,0.08,0.04,0.13,0.11,0.13s0.18-0.1,0.28-0.18c0.46-0.43,1.23-1.15,1.48-1.51
			c0.06-0.07,0.1-0.21-0.53-0.31c-0.08-0.01-0.13-0.06-0.13-0.1c0-0.06,0.14-0.25,0.24-0.25h0.66V26.54z"/>
		<path class="st0" d="M45.59,26.5c0.35,0,0.69,0.06,1.09,0.06c0.39,0,0.81-0.03,0.98-0.03c0.11,0,0.31,0.04,0.31,0.15
			c0,0.1-0.1,0.18-0.32,0.24c-0.39,0.11-0.43,0.18-0.29,0.55c0.21,0.67,1.11,2.86,1.22,3.03c0.01,0.03,0.07,0.03,0.11-0.06
			c0.17-0.38,1.04-2.63,1.11-2.86c0.13-0.39,0.01-0.56-0.53-0.69c-0.17-0.04-0.29-0.14-0.29-0.2c0-0.13,0.18-0.17,0.35-0.17
			c0.27,0,0.64,0.03,0.83,0.03c0.2,0,0.52-0.06,0.88-0.06c0.18,0,0.28,0.03,0.28,0.13c0,0.13-0.14,0.18-0.31,0.24
			c-0.29,0.1-0.48,0.27-0.69,0.73c-0.46,1.05-1.22,2.91-1.54,3.73c-0.49,1.27-1.01,2.72-1.46,3.91c-0.06,0.18-0.32,0.39-0.73,0.39
			c-0.48,0-0.63-0.39-0.63-0.69c0-0.24,0.22-0.62,0.62-0.62c0.07,0,0.36,0.01,0.5,0.01c0.13,0,0.15-0.1,0.21-0.24
			c0.13-0.22,0.57-1.46,0.67-1.81c0.04-0.2,0.1-0.38,0.04-0.5c-0.04-0.1-0.15-0.42-0.21-0.57c-0.29-0.83-1.16-2.9-1.6-3.78
			c-0.13-0.25-0.2-0.39-0.66-0.55c-0.2-0.07-0.28-0.13-0.28-0.21C45.26,26.61,45.3,26.5,45.59,26.5z"/>
		<path class="st0" d="M52.12,26.73c0.24-0.08,0.74-0.27,0.94-0.41c0.14-0.08,0.27-0.15,0.34-0.15s0.14,0.15,0.14,0.21
			c0,0.24-0.06,0.57-0.06,0.7c0,0.07,0.07,0.04,0.08,0.04c0.56-0.38,1.29-0.77,1.88-0.77c0.69,0,1.08,0.31,1.27,0.53
			c0.31,0.36,0.49,1.01,0.49,1.71c0,0.27,0.03,2.35,0.04,2.55c0.03,0.21,0.17,0.39,0.52,0.49c0.27,0.07,0.35,0.14,0.35,0.24
			s-0.2,0.15-0.42,0.15c-0.32,0-0.64-0.03-1.04-0.03c-0.35,0-0.78,0.03-0.97,0.03c-0.13,0-0.32-0.06-0.32-0.17
			c0-0.1,0.15-0.18,0.32-0.24c0.34-0.13,0.41-0.24,0.43-0.7c0.03-0.46,0.04-2.16,0.04-2.56c0-0.5-0.25-0.91-0.42-1.04
			c-0.15-0.11-0.57-0.27-0.9-0.27c-0.62,0-0.98,0.21-1.25,0.45c-0.04,0.04-0.14,0.21-0.14,0.34c0,0.18,0,3.19,0.01,3.36
			c0.01,0.2,0.07,0.31,0.52,0.43c0.14,0.04,0.25,0.13,0.25,0.21c0,0.1-0.15,0.17-0.35,0.17c-0.17,0-0.56-0.01-0.85-0.01
			c-0.52,0-0.92,0.04-1.16,0.04c-0.21,0-0.36-0.06-0.36-0.18c0-0.1,0.14-0.17,0.29-0.21c0.46-0.14,0.55-0.28,0.59-0.78
			c0.04-0.42,0.07-1.64,0.07-3.07c0-0.15-0.03-0.29-0.34-0.55c-0.18-0.13-0.27-0.2-0.27-0.24C51.87,26.92,52.02,26.78,52.12,26.73z"
			/>
		<path class="st0" d="M63.01,26.89c0.31,0.29,0.49,0.69,0.49,1.18c0,0.08-0.11,0.24-0.27,0.24c-0.15,0-2.55,0-3.19-0.01
			c-0.04,0-0.1,0.07-0.11,0.11c-0.04,0.11-0.07,0.35-0.07,0.49c0,0.55,0.22,1.19,0.53,1.6c0.31,0.42,0.9,0.77,1.57,0.77
			c0.62,0,1.04-0.15,1.27-0.5c0.06-0.08,0.13-0.17,0.18-0.17c0.08,0,0.11,0.1,0.11,0.17c0,0.11-0.06,0.27-0.1,0.34
			c-0.49,0.71-1.23,1.05-2.03,1.05c-1.51,0-2.52-1.15-2.52-2.79c0-1.12,0.59-2.24,1.68-2.75c0.36-0.17,0.83-0.25,1.06-0.25
			C62.12,26.35,62.66,26.54,63.01,26.89z M60.07,27.76c-0.03,0.07,0.03,0.15,0.06,0.15c0.36,0.01,1.11,0.01,1.81,0
			c0.34,0,0.48-0.07,0.48-0.35c0-0.39-0.42-0.84-0.92-0.84C60.86,26.72,60.32,27.11,60.07,27.76z"/>
		<path class="st0" d="M67.93,26.48c0.01,0,0.15,0.07,0.15,0.11c0-0.04,0.04,0.35,0.04,0.53c0,0.13-0.27,0.15-0.36,0.15
			c-0.06,0-1.37,0-1.53,0c-0.07,0-0.13,0.07-0.13,0.1c-0.01,0.28-0.03,2.34-0.03,3.01c0,0.35,0.08,0.53,0.24,0.69
			c0.27,0.24,0.56,0.27,0.85,0.27c0.18,0,0.48-0.08,0.69-0.21c0.13-0.07,0.15-0.08,0.21-0.08c0.01,0,0.08,0.03,0.08,0.15
			c0,0.11-0.1,0.25-0.2,0.35c-0.38,0.36-0.87,0.62-1.5,0.62c-0.57,0-1.06-0.35-1.23-0.66c-0.15-0.24-0.18-0.53-0.18-0.92
			c0-0.52,0.06-2.62,0.06-3.11c0-0.1-0.25-0.2-0.53-0.28c-0.11-0.04-0.2-0.11-0.2-0.15c0-0.06,0.04-0.11,0.08-0.15
			c0.49-0.39,0.92-0.73,1.12-0.97c0.17-0.2,0.27-0.31,0.32-0.31c0.07,0,0.2,0.13,0.2,0.15c0,0.06,0,0.25,0,0.66
			c0,0.04,0.06,0.11,0.11,0.11C66.51,26.54,67.87,26.48,67.93,26.48z"/>
		<path class="st0" d="M74.65,28.46c0.03,0,0.11,0.1,0.11,0.15c0,0.22-0.08,0.66-0.25,0.67c-0.48,0.06-1.75,0.18-2.59,0.27
			c-0.13,0.01-0.22-0.08-0.22-0.2c0-0.36,0.15-0.57,0.24-0.59C72.7,28.65,74.1,28.51,74.65,28.46z"/>
		<path class="st0" d="M79.82,24.37c-0.04-0.64-0.04-0.85-0.83-0.99c-0.31-0.06-0.39-0.15-0.39-0.25c0-0.11,0.15-0.17,0.35-0.17
			c0.36,0,1.06,0.04,1.53,0.04c0.69,0,1.01-0.04,1.5-0.04c0.22,0,0.35,0.06,0.35,0.17s-0.14,0.2-0.36,0.24
			c-0.81,0.17-0.8,0.52-0.85,0.9c-0.07,0.46-0.08,1.37-0.08,4.12c0,0.77,0.01,1.64,0.04,2.09c0.04,0.76,0.11,1.02,1.02,1.21
			c0.25,0.04,0.36,0.14,0.36,0.24c0,0.11-0.21,0.18-0.38,0.18c-0.71,0-1.71-0.08-2.09-0.08c-0.42,0-0.55,0.03-1.06,0.03
			c-0.27,0-0.36-0.1-0.36-0.2s0.14-0.18,0.42-0.24c0.7-0.15,0.76-0.36,0.81-1.02c0.04-0.49,0.07-1.95,0.07-3.14
			C79.87,26.56,79.85,24.83,79.82,24.37z"/>
		<path class="st0" d="M87.76,26.71c0.14,0.1,0.21,0.34,0.21,0.42c0,0.22-0.41,0.56-0.46,0.56c-0.08,0-0.32-0.11-0.55-0.27
			c-0.46-0.34-0.7-0.55-1.18-0.55c-0.22,0-0.64,0.2-0.87,0.48c-0.38,0.42-0.59,0.99-0.59,1.61c0,0.81,0.31,1.32,0.36,1.4
			c0.35,0.59,1.04,0.94,1.77,0.94c0.52,0,0.88-0.17,1.25-0.42c0.15-0.11,0.27-0.07,0.27,0c0,0.15-0.07,0.29-0.18,0.41
			c-0.49,0.55-1.29,0.87-2.02,0.87c-0.88,0-1.62-0.46-2.07-1.12c-0.24-0.39-0.43-1.05-0.43-1.64c0-1.02,0.55-1.88,1.36-2.42
			c0.55-0.39,1.46-0.59,1.83-0.59C86.88,26.38,87.5,26.5,87.76,26.71z"/>
		<path class="st0" d="M94.61,29.2c0,1.16-0.7,2.07-1.22,2.41c-0.56,0.41-1.11,0.56-1.74,0.56c-0.64,0-1.34-0.29-1.86-0.73
			c-0.6-0.49-1.04-1.44-1.04-2.14c0-1.06,0.45-1.74,0.98-2.19c0.43-0.38,1.13-0.77,2.07-0.77C93.19,26.34,94.61,27.43,94.61,29.2z
			 M90.63,27.17c-0.36,0.34-0.69,1.06-0.69,1.79c0,0.46,0.06,0.9,0.17,1.25c0.35,1.05,1.15,1.55,1.82,1.55
			c0.15,0,0.46-0.07,0.85-0.46c0.35-0.38,0.63-1.25,0.63-1.85c0-0.73-0.17-1.53-0.7-2.14c-0.31-0.34-0.81-0.55-1.18-0.55
			C91.25,26.76,90.93,26.92,90.63,27.17z"/>
		<path class="st0" d="M96.05,26.73c0.24-0.08,0.74-0.27,0.94-0.41c0.14-0.08,0.27-0.15,0.34-0.15s0.14,0.15,0.14,0.21
			c0,0.24-0.06,0.57-0.06,0.7c0,0.07,0.07,0.04,0.08,0.04c0.56-0.38,1.29-0.77,1.88-0.77c0.69,0,1.08,0.31,1.27,0.53
			c0.31,0.36,0.49,1.01,0.49,1.71c0,0.27,0.03,2.35,0.04,2.55c0.03,0.21,0.17,0.39,0.52,0.49c0.27,0.07,0.35,0.14,0.35,0.24
			s-0.2,0.15-0.42,0.15c-0.32,0-0.64-0.03-1.04-0.03c-0.35,0-0.78,0.03-0.97,0.03c-0.13,0-0.32-0.06-0.32-0.17
			c0-0.1,0.15-0.18,0.32-0.24c0.34-0.13,0.41-0.24,0.43-0.7c0.03-0.46,0.04-2.16,0.04-2.56c0-0.5-0.25-0.91-0.42-1.04
			c-0.15-0.11-0.57-0.27-0.9-0.27c-0.62,0-0.98,0.21-1.25,0.45c-0.04,0.04-0.14,0.21-0.14,0.34c0,0.18,0,3.19,0.01,3.36
			c0.01,0.2,0.07,0.31,0.52,0.43c0.14,0.04,0.25,0.13,0.25,0.21c0,0.1-0.15,0.17-0.35,0.17c-0.17,0-0.56-0.01-0.85-0.01
			c-0.52,0-0.92,0.04-1.16,0.04c-0.21,0-0.36-0.06-0.36-0.18c0-0.1,0.14-0.17,0.29-0.21c0.46-0.14,0.55-0.28,0.59-0.78
			c0.04-0.42,0.07-1.64,0.07-3.07c0-0.15-0.03-0.29-0.34-0.55c-0.18-0.13-0.27-0.2-0.27-0.24C95.8,26.92,95.95,26.78,96.05,26.73z"
			/>
		<path class="st0" d="M106.88,24.37c-0.04-0.64-0.04-0.85-0.83-0.99c-0.31-0.06-0.39-0.15-0.39-0.25c0-0.11,0.15-0.17,0.35-0.17
			c0.36,0,1.06,0.04,1.53,0.04c0.69,0,1.01-0.04,1.5-0.04c0.22,0,0.35,0.06,0.35,0.17s-0.14,0.2-0.36,0.24
			c-0.81,0.17-0.8,0.52-0.85,0.9c-0.07,0.46-0.08,1.37-0.08,4.12c0,0.77,0.01,1.64,0.04,2.09c0.04,0.76,0.11,1.02,1.02,1.21
			c0.25,0.04,0.36,0.14,0.36,0.24c0,0.11-0.21,0.18-0.38,0.18c-0.71,0-1.71-0.08-2.09-0.08c-0.42,0-0.55,0.03-1.06,0.03
			c-0.27,0-0.36-0.1-0.36-0.2s0.14-0.18,0.42-0.24c0.7-0.15,0.76-0.36,0.81-1.02c0.04-0.49,0.07-1.95,0.07-3.14
			C106.93,26.56,106.91,24.83,106.88,24.37z"/>
		<path class="st0" d="M110.87,26.73c0.24-0.08,0.74-0.27,0.94-0.41c0.14-0.08,0.27-0.15,0.34-0.15s0.14,0.15,0.14,0.21
			c0,0.24-0.06,0.57-0.06,0.7c0,0.07,0.07,0.04,0.08,0.04c0.56-0.38,1.29-0.77,1.88-0.77c0.69,0,1.08,0.31,1.27,0.53
			c0.31,0.36,0.49,1.01,0.49,1.71c0,0.27,0.03,2.35,0.04,2.55c0.03,0.21,0.17,0.39,0.52,0.49c0.27,0.07,0.35,0.14,0.35,0.24
			s-0.2,0.15-0.42,0.15c-0.32,0-0.64-0.03-1.04-0.03c-0.35,0-0.78,0.03-0.97,0.03c-0.13,0-0.32-0.06-0.32-0.17
			c0-0.1,0.15-0.18,0.32-0.24c0.34-0.13,0.41-0.24,0.43-0.7c0.03-0.46,0.04-2.16,0.04-2.56c0-0.5-0.25-0.91-0.42-1.04
			c-0.15-0.11-0.57-0.27-0.9-0.27c-0.62,0-0.98,0.21-1.25,0.45c-0.04,0.04-0.14,0.21-0.14,0.34c0,0.18,0,3.19,0.01,3.36
			c0.01,0.2,0.07,0.31,0.52,0.43c0.14,0.04,0.25,0.13,0.25,0.21c0,0.1-0.15,0.17-0.35,0.17c-0.17,0-0.56-0.01-0.85-0.01
			c-0.52,0-0.92,0.04-1.16,0.04c-0.21,0-0.36-0.06-0.36-0.18c0-0.1,0.14-0.17,0.29-0.21c0.46-0.14,0.55-0.28,0.59-0.78
			c0.04-0.42,0.07-1.64,0.07-3.07c0-0.15-0.03-0.29-0.34-0.55c-0.18-0.13-0.27-0.2-0.27-0.24
			C110.62,26.92,110.78,26.78,110.87,26.73z"/>
		<path class="st0" d="M121.85,26.4c0.06,0.01,0.1-0.08,0.11-0.15c0.07-0.38,0.03-2.52-0.01-2.86c-0.01-0.07-0.01-0.24-0.66-0.57
			c-0.13-0.07-0.14-0.1-0.14-0.13c0-0.06,0.15-0.22,0.24-0.24c0.32-0.04,1.06-0.25,1.43-0.39c0.08-0.03,0.13-0.04,0.18-0.04
			c0.04,0,0.13,0.1,0.11,0.22c-0.07,0.74-0.13,1.25-0.13,5.53c0,2.83,0.03,2.93,0.04,3.19c0.01,0.52,0.13,0.57,0.21,0.57
			c0.15,0,0.62-0.1,0.76-0.11c0.06,0,0.08,0.07,0.08,0.08c0,0.1-0.17,0.34-0.24,0.35c-0.27,0.04-0.99,0.18-1.26,0.28
			c-0.32,0.11-0.43,0.14-0.5,0.14c-0.06,0-0.15-0.11-0.15-0.18c0-0.13,0.03-0.38,0.03-0.57c0-0.06-0.06-0.08-0.08-0.08
			c-0.64,0.57-1.36,0.7-1.82,0.7c-0.67,0-1.32-0.31-1.75-0.77c-0.45-0.5-0.67-1.22-0.67-1.92c0-1.37,0.8-2.17,1.48-2.58
			c0.64-0.39,1.47-0.53,1.85-0.53C121.46,26.34,121.68,26.37,121.85,26.4z M119.35,27.29c-0.27,0.27-0.59,0.98-0.59,1.77
			c0,1.12,0.78,2.41,1.99,2.41c0.45,0,0.77-0.15,1.02-0.34c0.03-0.03,0.21-0.48,0.22-0.92c0.01-0.9,0-1.67-0.04-2.33
			c-0.01-0.11-0.14-0.36-0.31-0.53c-0.39-0.39-0.92-0.55-1.2-0.55C119.99,26.8,119.6,27.04,119.35,27.29z"/>
		<path class="st0" d="M128.75,26.89c0.31,0.29,0.49,0.69,0.49,1.18c0,0.08-0.11,0.24-0.27,0.24c-0.15,0-2.55,0-3.19-0.01
			c-0.04,0-0.1,0.07-0.11,0.11c-0.04,0.11-0.07,0.35-0.07,0.49c0,0.55,0.22,1.19,0.53,1.6c0.31,0.42,0.9,0.77,1.57,0.77
			c0.62,0,1.04-0.15,1.27-0.5c0.06-0.08,0.13-0.17,0.18-0.17c0.08,0,0.11,0.1,0.11,0.17c0,0.11-0.06,0.27-0.1,0.34
			c-0.49,0.71-1.23,1.05-2.03,1.05c-1.51,0-2.52-1.15-2.52-2.79c0-1.12,0.59-2.24,1.68-2.75c0.36-0.17,0.83-0.25,1.06-0.25
			C127.86,26.35,128.4,26.54,128.75,26.89z M125.81,27.76c-0.03,0.07,0.03,0.15,0.06,0.15c0.36,0.01,1.11,0.01,1.81,0
			c0.34,0,0.48-0.07,0.48-0.35c0-0.39-0.42-0.84-0.92-0.84C126.6,26.72,126.06,27.11,125.81,27.76z"/>
		<path class="st0" d="M130.22,26.45c0.17,0,0.88,0.08,1.22,0.08c0.29,0,0.59-0.03,0.83-0.03c0.17,0,0.31,0.04,0.31,0.13
			c0,0.1-0.11,0.2-0.27,0.24c-0.31,0.1-0.28,0.22-0.28,0.29c0,0.08,0.55,1.01,0.74,1.29c0.01,0.03,0.07,0.01,0.1-0.01
			c0.22-0.29,0.6-0.88,0.74-1.15c0.14-0.22,0.07-0.29-0.1-0.36c-0.31-0.13-0.38-0.17-0.38-0.27s0.13-0.15,0.28-0.15
			c0.14,0,0.35,0.03,0.6,0.03c0.34,0,0.99-0.07,1.22-0.07c0.15,0,0.29,0.04,0.29,0.15s-0.2,0.17-0.27,0.2
			c-0.56,0.15-0.91,0.29-1.22,0.67c-0.35,0.43-0.6,0.76-0.98,1.29c-0.03,0.06-0.03,0.11-0.01,0.15c0.14,0.31,0.73,1.37,1.16,1.99
			c0.42,0.6,0.77,0.7,1.06,0.77c0.24,0.06,0.32,0.14,0.32,0.21c0,0.1-0.11,0.17-0.34,0.17c-0.48,0-0.98-0.07-1.51-0.07
			c-0.28,0-0.43,0.03-0.71,0.03c-0.2,0-0.29-0.08-0.29-0.18c0-0.06,0.07-0.13,0.27-0.18c0.24-0.08,0.41-0.14,0.14-0.56
			c-0.14-0.27-0.59-1.12-0.69-1.2c-0.03-0.03-0.06-0.04-0.1,0c-0.22,0.22-0.87,1.19-0.88,1.39c0,0.17,0.08,0.28,0.36,0.39
			c0.08,0.03,0.2,0.13,0.2,0.21c0,0.11-0.2,0.14-0.29,0.14c-0.29,0-0.38-0.03-0.6-0.03c-0.46,0-0.87,0.06-1.13,0.06
			c-0.18,0-0.41-0.04-0.41-0.15c0-0.1,0.18-0.18,0.35-0.22c0.49-0.14,0.77-0.32,1.05-0.64s0.74-1.01,1.16-1.56
			c0.03-0.04,0.03-0.08,0-0.14c-0.06-0.13-0.56-1.05-0.97-1.67c-0.35-0.52-0.63-0.73-0.98-0.84c-0.27-0.07-0.36-0.15-0.36-0.25
			C129.86,26.5,130.03,26.45,130.22,26.45z"/>
		<path class="st0" d="M137.82,31.37c0,0.45-0.32,0.81-0.78,0.81c-0.34,0-0.77-0.21-0.77-0.81c0-0.59,0.52-0.81,0.77-0.81
			C137.64,30.56,137.82,31.09,137.82,31.37z"/>
		<path class="st0" d="M32.31,41.78c-0.02-0.05,0.04-0.14,0.12-0.21c0.4-0.37,1-1.12,1.43-1.66c0.5-0.65,0.93-1.38,0.93-2.01
			c0-0.78-0.49-1.11-1.04-1.11c-0.51,0-0.89,0.28-1.11,0.56c-0.1,0.13-0.15,0.19-0.19,0.19c-0.03,0-0.1-0.09-0.1-0.13
			c0-0.08,0.03-0.17,0.12-0.3c0.4-0.62,0.96-0.95,1.62-0.95c0.81,0,1.44,0.7,1.44,1.52c0,0.52-0.35,1.15-0.71,1.58
			c-0.5,0.58-1.01,1.19-1.63,1.87c-0.03,0.02-0.01,0.06,0.02,0.07c0.39,0.04,1.76,0.04,2.06-0.01c0.27-0.04,0.4-0.11,0.63-0.35
			c0.06-0.07,0.14-0.15,0.18-0.15c0.08,0,0.12,0.12,0.03,0.29c-0.16,0.35-0.24,0.57-0.28,0.81c-0.02,0.07-0.1,0.08-0.14,0.08
			s-1.86-0.04-2.29-0.04c-0.21,0-0.58,0-0.91,0.03C32.44,41.89,32.31,41.84,32.31,41.78z"/>
		<path class="st0" d="M40.42,38.98c0,1.45-0.52,2.4-1.03,2.73c-0.26,0.17-0.56,0.26-0.83,0.25c-1.35-0.03-1.85-1.69-1.85-2.84
			c0-1.45,0.52-2.34,1.09-2.7c0.24-0.15,0.49-0.24,0.83-0.24C40.06,36.17,40.42,38.02,40.42,38.98z M37.93,36.78
			c-0.22,0.32-0.46,0.89-0.46,2.22c0,1,0.3,2.71,1.22,2.71c0.31,0,0.56-0.39,0.59-0.43c0.21-0.4,0.35-1.1,0.35-2.25
			c0-1.48-0.43-2.25-0.68-2.42c-0.14-0.1-0.29-0.17-0.47-0.17C38.27,36.44,38.12,36.52,37.93,36.78z"/>
		<path class="st0" d="M42.01,41.62c0.44-0.1,0.57-0.2,0.61-0.58c0.04-0.3,0.06-0.95,0.06-2.61c0-0.96-0.01-1.26-0.04-1.4
			c-0.02-0.09-0.1-0.16-0.2-0.18c-0.14-0.03-0.32-0.05-0.41-0.07c-0.14-0.04-0.17-0.06-0.17-0.13c0-0.04,0.09-0.12,0.18-0.14
			c0.34-0.07,0.68-0.12,0.95-0.26c0.18-0.09,0.31-0.15,0.34-0.17c0.06-0.01,0.1,0.05,0.1,0.09c0,0.18-0.04,0.38-0.03,1.04
			c0,0.64,0,2.5,0.01,3.56c0,0.61,0.03,0.7,0.58,0.84c0.13,0.03,0.23,0.08,0.23,0.16c0,0.06-0.08,0.1-0.22,0.1
			c-0.23,0-0.59-0.04-0.87-0.04c-0.51,0-1.09,0.04-1.22,0.04c-0.1,0-0.23-0.02-0.23-0.09C41.71,41.73,41.8,41.68,42.01,41.62z"/>
		<path class="st0" d="M49.13,38.29c0,1.28-0.98,2.9-2.21,3.66c-0.49,0.31-0.77,0.41-1.08,0.41c-0.06,0-0.17-0.04-0.17-0.1
			c0-0.03,0.07-0.07,0.13-0.09c0.64-0.32,1.16-0.77,1.55-1.23c0.57-0.66,1-1.68,1-2.6c0-0.56-0.18-1.28-0.62-1.64
			c-0.18-0.14-0.43-0.2-0.61-0.2c-0.57,0-0.95,0.59-0.95,1.13c0,0.87,0.47,1.32,1.14,1.32c0.25,0,0.41-0.1,0.53-0.15
			c0.04-0.02,0.1,0.01,0.1,0.04c0,0.04-0.02,0.1-0.04,0.15c-0.02,0.04-0.05,0.1-0.16,0.19c-0.25,0.22-0.67,0.34-0.89,0.34
			c-0.81,0-1.33-0.65-1.33-1.47c0-0.53,0.23-1.23,0.97-1.66c0.28-0.16,0.68-0.24,0.94-0.24C48.58,36.17,49.13,37.27,49.13,38.29z"/>
		<path class="st0" d="M50.92,41.44c0,0.29-0.21,0.52-0.5,0.52c-0.22,0-0.5-0.14-0.5-0.52s0.33-0.52,0.5-0.52
			C50.8,40.92,50.92,41.27,50.92,41.44z"/>
		<path class="st0" d="M55.38,38.98c0,1.45-0.52,2.4-1.03,2.73c-0.26,0.17-0.56,0.26-0.83,0.25c-1.35-0.03-1.85-1.69-1.85-2.84
			c0-1.45,0.52-2.34,1.09-2.7c0.24-0.15,0.49-0.24,0.83-0.24C55.02,36.17,55.38,38.02,55.38,38.98z M52.9,36.78
			c-0.22,0.32-0.46,0.89-0.46,2.22c0,1,0.3,2.71,1.22,2.71c0.31,0,0.56-0.39,0.59-0.43c0.21-0.4,0.35-1.1,0.35-2.25
			c0-1.48-0.43-2.25-0.68-2.42c-0.14-0.1-0.29-0.17-0.47-0.17C53.24,36.44,53.09,36.52,52.9,36.78z"/>
		<path class="st0" d="M58.72,41.66c-0.58,0.49-1.52,0.7-2.01,0.7c-0.09,0-0.18,0-0.21-0.01c-0.09-0.01-0.13-0.03-0.13-0.07
			s0.1-0.16,0.18-0.18c1.12-0.1,2.22-0.68,2.22-1.78c0-0.57-0.34-1.05-0.91-1.31c-0.44-0.19-0.88-0.34-1.45-0.44
			c-0.04-0.01-0.12-0.16-0.12-0.21c0-0.25,0.28-1.15,0.45-1.56c0.04-0.1,0.15-0.3,0.2-0.31c0.22-0.09,1.56-0.32,2.16-0.32
			c0.02,0,0.07,0.07,0.07,0.08c0,0.36-0.36,0.7-0.46,0.71C58.18,37,57.29,37.05,57,37.08c-0.04,0-0.1,0.04-0.11,0.08
			c-0.08,0.23-0.18,0.53-0.19,0.57c-0.01,0.06,0.02,0.12,0.06,0.13c0.58,0.13,1.45,0.46,1.79,0.67c0.62,0.37,0.95,0.95,0.95,1.56
			C59.52,40.79,59.15,41.31,58.72,41.66z"/>
		<path class="st0" d="M61.51,41.44c0,0.29-0.21,0.52-0.5,0.52c-0.22,0-0.5-0.14-0.5-0.52s0.33-0.52,0.5-0.52
			C61.39,40.92,61.51,41.27,61.51,41.44z"/>
		<path class="st0" d="M62.24,41.78c-0.02-0.05,0.04-0.14,0.12-0.21c0.4-0.37,1-1.12,1.43-1.66c0.5-0.65,0.93-1.38,0.93-2.01
			c0-0.78-0.49-1.11-1.04-1.11c-0.51,0-0.89,0.28-1.11,0.56c-0.1,0.13-0.15,0.19-0.19,0.19c-0.03,0-0.1-0.09-0.1-0.13
			c0-0.08,0.03-0.17,0.12-0.3c0.4-0.62,0.96-0.95,1.62-0.95c0.81,0,1.44,0.7,1.44,1.52c0,0.52-0.35,1.15-0.71,1.58
			c-0.5,0.58-1.01,1.19-1.63,1.87c-0.03,0.02-0.01,0.06,0.02,0.07c0.39,0.04,1.76,0.04,2.06-0.01c0.27-0.04,0.4-0.11,0.63-0.35
			c0.06-0.07,0.14-0.15,0.18-0.15c0.08,0,0.12,0.12,0.03,0.29c-0.16,0.35-0.24,0.57-0.28,0.81c-0.02,0.07-0.1,0.08-0.14,0.08
			s-1.86-0.04-2.29-0.04c-0.21,0-0.58,0-0.91,0.03C62.37,41.89,62.25,41.84,62.24,41.78z"/>
		<path class="st0" d="M69.7,39.61c0,0.03,0.03,0.07,0.04,0.07l0.81-0.02c0.03,0,0.05,0.04,0.05,0.08c0,0.09-0.06,0.31-0.14,0.35
			l-0.71-0.01c-0.02,0-0.05,0.04-0.05,0.06c0,0.11-0.01,0.54,0,0.74c0.03,0.62,0.07,0.67,0.48,0.75c0.15,0.04,0.2,0.09,0.2,0.14
			c0,0.04-0.04,0.11-0.21,0.11c-0.21,0.01-0.58-0.04-0.85-0.04c-0.32,0-0.63,0.04-0.94,0.04c-0.14,0-0.23-0.05-0.23-0.12
			c0-0.05,0.09-0.12,0.23-0.14c0.54-0.1,0.51-0.26,0.55-0.71c0.01-0.18,0.03-0.66,0.03-0.71c0-0.08-0.01-0.11-0.04-0.12
			c-0.16-0.02-2-0.03-2.39,0.02c-0.08,0.01-0.16-0.03-0.16-0.07c0-0.09,0.12-0.23,0.24-0.4l2.89-3.95c0.05-0.06,0.11-0.13,0.17-0.13
			h0.1c0.08,0,0.13,0.03,0.13,0.07c0,0.03-0.02,0.06-0.05,0.1L67,39.59c-0.03,0.04-0.01,0.06,0.02,0.07
			c0.4,0.04,1.74,0.03,1.91,0.02c0,0,0.05-0.05,0.05-0.06l0.01-1.72c0-0.03,0.05-0.12,0.08-0.14c0.1-0.07,0.41-0.16,0.56-0.16
			c0.04,0,0.08,0.05,0.08,0.23v1.78H69.7z"/>
	</g>
</g>
<g>
	<polygon points="56.25,92.25 55.75,92.25 55.75,87.75 60.25,87.75 60.25,88.25 56.25,88.25 	"/>
	<polygon points="60.25,104.25 55.75,104.25 55.75,99.75 56.25,99.75 56.25,103.75 60.25,103.75 	"/>
	<polygon points="72.25,104.25 67.75,104.25 67.75,103.75 71.75,103.75 71.75,99.75 72.25,99.75 	"/>
	<polygon points="72.25,92.25 71.75,92.25 71.75,88.25 67.75,88.25 67.75,87.75 72.25,87.75 	"/>
	<rect x="63.75" y="79.25" width="0.5" height="8.5"/>
	<rect x="72.25" y="95.75" width="8.5" height="0.5"/>
	<rect x="63.75" y="103.75" width="0.5" height="8.5"/>
	<rect x="47.25" y="95.75" width="8.5" height="0.5"/>
	<polygon points="120.25,92.25 119.75,92.25 119.75,87.75 124.25,87.75 124.25,88.25 120.25,88.25 	"/>
	<polygon points="124.25,104.25 119.75,104.25 119.75,99.75 120.25,99.75 120.25,103.75 124.25,103.75 	"/>
	<polygon points="136.25,104.25 131.75,104.25 131.75,103.75 135.75,103.75 135.75,99.75 136.25,99.75 	"/>
	<polygon points="136.25,92.25 135.75,92.25 135.75,88.25 131.75,88.25 131.75,87.75 136.25,87.75 	"/>
	<rect x="127.75" y="84.25" width="0.5" height="8.5"/>
	<rect x="131.25" y="95.75" width="8.5" height="0.5"/>
	<rect x="127.75" y="99.75" width="0.5" height="8.5"/>
	<rect x="116.25" y="95.75" width="8.5" height="0.5"/>
	<path d="M196.25,100.25h-8.5v-8.5h8.5V100.25z M188.25,99.75h7.5v-7.5h-7.5V99.75z"/>
	<rect x="191.75" y="78.78" transform="matrix(0.7071 -0.7071 0.7071 0.7071 -11.6468 163.8822)" width="0.5" height="34.44"/>
	<rect x="174.78" y="95.75" transform="matrix(0.7071 -0.7071 0.7071 0.7071 -11.6468 163.8822)" width="34.44" height="0.5"/>
	<path d="M264.25,104.25h-16.5v-16.5h16.5V104.25z M248.25,103.75h15.5v-15.5h-15.5V103.75z"/>
	<rect x="255.75" y="78.78" transform="matrix(0.7071 -0.7071 0.7071 0.7071 7.0984 209.1371)" width="0.5" height="34.44"/>
	<rect x="238.78" y="95.75" transform="matrix(0.7071 -0.7071 0.7071 0.7071 7.0984 209.1371)" width="34.44" height="0.5"/>
	<path d="M316.25,92.25h-4.5v-4.5h4.5V92.25z M312.25,91.75h3.5v-3.5h-3.5V91.75z"/>
	<path d="M328.25,92.25h-4.5v-4.5h4.5V92.25z M324.25,91.75h3.5v-3.5h-3.5V91.75z"/>
	<path d="M316.25,104.25h-4.5v-4.5h4.5V104.25z M312.25,103.75h3.5v-3.5h-3.5V103.75z"/>
	<path d="M328.25,104.25h-4.5v-4.5h4.5V104.25z M324.25,103.75h3.5v-3.5h-3.5V103.75z"/>
	<rect x="319.75" y="90.09" transform="matrix(0.7071 -0.7071 0.7071 0.7071 25.8436 254.3919)" width="0.5" height="11.81"/>
	<rect x="314.7" y="95.5" transform="matrix(0.7071 -0.7071 0.7071 0.7071 26.0936 254.4955)" width="11.11" height="0.5"/>
	<path d="M388.25,100.25h-8.5v-8.5h8.5V100.25z M380.25,99.75h7.5v-7.5h-7.5V99.75z"/>
	<path d="M380.25,92.25h-4.5v-4.5h4.5V92.25z M376.25,91.75h3.5v-3.5h-3.5V91.75z"/>
	<path d="M380.25,104.25h-4.5v-4.5h4.5V104.25z M376.25,103.75h3.5v-3.5h-3.5V103.75z"/>
	<path d="M392.25,104.25h-4.5v-4.5h4.5V104.25z M388.25,103.75h3.5v-3.5h-3.5V103.75z"/>
	<polygon points="56.25,156.5 55.75,156.5 55.75,152 60.25,152 60.25,152.5 56.25,152.5 	"/>
	<polygon points="60.25,168.5 55.75,168.5 55.75,164 56.25,164 56.25,168 60.25,168 	"/>
	<polygon points="72.25,168.5 67.75,168.5 67.75,168 71.75,168 71.75,164 72.25,164 	"/>
	<polygon points="72.25,156.5 71.75,156.5 71.75,152.5 67.75,152.5 67.75,152 72.25,152 	"/>
	<rect x="63.75" y="143.75" width="0.5" height="32.5"/>
	<rect x="47.75" y="159.75" width="32.5" height="0.5"/>
	<polygon points="120.25,156.25 119.75,156.25 119.75,151.75 124.25,151.75 124.25,152.25 120.25,152.25 	"/>
	<polygon points="124.25,168.25 119.75,168.25 119.75,163.75 120.25,163.75 120.25,167.75 124.25,167.75 	"/>
	<polygon points="136.25,168.25 131.75,168.25 131.75,167.75 135.75,167.75 135.75,163.75 136.25,163.75 	"/>
	<polygon points="136.25,156.25 135.75,156.25 135.75,152.25 131.75,152.25 131.75,151.75 136.25,151.75 	"/>
	<path d="M132.25,164.25h-8.5v-8.5h8.5V164.25z M124.25,163.75h7.5v-7.5h-7.5V163.75z"/>
	<path d="M192,166.01l-6.01-6.01l6.01-6.01l6.01,6.01L192,166.01z M186.7,160l5.3,5.3l5.3-5.3l-5.3-5.3L186.7,160z"/>
	<rect x="191.75" y="142.78" transform="matrix(0.7071 -0.7071 0.7071 0.7071 -56.9016 182.6274)" width="0.5" height="34.44"/>
	<rect x="174.78" y="159.75" transform="matrix(0.7071 -0.7071 0.7071 0.7071 -56.9016 182.6274)" width="34.44" height="0.5"/>
	<path d="M256,171.66L244.33,160L256,148.33L267.67,160L256,171.66z M245.04,160L256,170.96L266.96,160L256,149.04L245.04,160z"/>
	<rect x="255.75" y="142.78" transform="matrix(0.7071 -0.7071 0.7071 0.7071 -38.1564 227.8822)" width="0.5" height="34.44"/>
	<rect x="238.78" y="159.75" transform="matrix(0.7071 -0.7071 0.7071 0.7071 -38.1564 227.8822)" width="34.44" height="0.5"/>
	<path d="M316.25,156.25h-4.5v-4.5h4.5V156.25z M312.25,155.75h3.5v-3.5h-3.5V155.75z"/>
	<path d="M328.25,156.25h-4.5v-4.5h4.5V156.25z M324.25,155.75h3.5v-3.5h-3.5V155.75z"/>
	<path d="M316.25,168.25h-4.5v-4.5h4.5V168.25z M312.25,167.75h3.5v-3.5h-3.5V167.75z"/>
	<path d="M328.25,168.25h-4.5v-4.5h4.5V168.25z M324.25,167.75h3.5v-3.5h-3.5V167.75z"/>
	<path d="M320.25,160.25h-4.5v-4.5h4.5V160.25z M316.25,159.75h3.5v-3.5h-3.5V159.75z"/>
	<rect x="309.75" y="146.92" transform="matrix(0.7071 -0.7071 0.7071 0.7071 -15.2691 263.1371)" width="0.5" height="6.16"/>
	<rect x="329.75" y="166.92" transform="matrix(0.7071 -0.7071 0.7071 0.7071 -23.5534 283.1371)" width="0.5" height="6.16"/>
	<rect x="306.97" y="169.88" transform="matrix(0.7071 -0.7071 0.7071 0.7071 -29.5363 268.9432)" width="5.8" height="0.5"/>
	<rect x="327.09" y="149.75" transform="matrix(0.7071 -0.7071 0.7071 0.7071 -9.4113 277.2792)" width="5.82" height="0.5"/>
	<path d="M388.25,164.25h-8.5v-8.5h8.5V164.25z M380.25,163.75h7.5v-7.5h-7.5V163.75z"/>
	<rect x="382.75" y="149.75" width="0.5" height="4.5"/>
	<rect x="384.75" y="149.75" width="0.5" height="4.5"/>
	<rect x="382.75" y="165.75" width="0.5" height="4.5"/>
	<rect x="384.75" y="165.75" width="0.5" height="4.5"/>
	<rect x="389.75" y="158.75" width="4.5" height="0.5"/>
	<rect x="389.75" y="160.75" width="4.5" height="0.5"/>
	<rect x="373.75" y="158.75" width="4.5" height="0.5"/>
	<rect x="373.75" y="160.75" width="4.5" height="0.5"/>
	<polygon points="376.25,156.25 375.75,156.25 375.75,151.75 380.25,151.75 380.25,152.25 376.25,152.25 	"/>
	<polygon points="380.25,168.25 375.75,168.25 375.75,163.75 376.25,163.75 376.25,167.75 380.25,167.75 	"/>
	<polygon points="392.25,168.25 387.75,168.25 387.75,167.75 391.75,167.75 391.75,163.75 392.25,163.75 	"/>
	<polygon points="392.25,156.25 391.75,156.25 391.75,152.25 387.75,152.25 387.75,151.75 392.25,151.75 	"/>
	<path d="M516.12,168.12h-8.25V87.88h8.25V168.12z M508.12,167.88h7.75V88.12h-7.75V167.88z"/>
	<rect x="511.75" y="103.75" width="0.5" height="60.5"/>
	<rect x="509.75" y="91.75" width="4.5" height="0.5"/>
	<rect x="509.75" y="95.75" width="4.5" height="0.5"/>
	<rect x="509.75" y="99.75" width="4.5" height="0.5"/>
	<polygon points="512,164.81 509.42,162.23 509.77,161.88 512,164.11 514.23,161.88 514.58,162.23 	"/>
	<rect x="509.75" y="93.75" width="4.5" height="0.5"/>
	<rect x="509.75" y="97.75" width="4.5" height="0.5"/>
	<path d="M65.25,97.25h-2.5v-2.5h2.5V97.25z M63.25,96.75h1.5v-1.5h-1.5V96.75z"/>
	<path d="M65.25,97.25h-2.5v-2.5h2.5V97.25z M63.25,96.75h1.5v-1.5h-1.5V96.75z"/>
	<path d="M65.25,97.25h-2.5v-2.5h2.5V97.25z M63.25,96.75h1.5v-1.5h-1.5V96.75z"/>
	<path d="M65.25,97.25h-2.5v-2.5h2.5V97.25z M63.25,96.75h1.5v-1.5h-1.5V96.75z"/>
	<path d="M70.83,235.83H57.17L50.35,224l6.83-11.83h13.66L77.65,224L70.83,235.83z M58.33,233.83h11.34l5.67-9.83l-5.67-9.83H58.33
		L52.65,224L58.33,233.83z"/>
	<rect x="118" y="222" width="20" height="4"/>
	<rect x="118" y="214" width="20" height="4"/>
	<rect x="118" y="230" width="20" height="4"/>
	<path d="M197,236.09H187l-7.09-7.09V219l7.09-7.09H197l7.09,7.09V229L197,236.09z M187.82,234.09h8.35l5.91-5.91v-8.35l-5.91-5.91
		h-8.35l-5.91,5.91v8.35L187.82,234.09z"/>
	<path d="M263.78,234.71h-15.55l-4.81-14.8l12.59-9.14l12.59,9.14L263.78,234.71z M249.68,232.71h12.65l3.91-12.04L256,213.24
		l-10.23,7.44L249.68,232.71z"/>
	<path d="M553.15,100.25h-4.56l4.25-8.5h4.56L553.15,100.25z M549.4,99.75h3.44l3.75-7.5h-3.44L549.4,99.75z"/>
	<path d="M548.15,100.25h-4.4v-8.5h8.65L548.15,100.25z M544.25,99.75h3.6l3.75-7.5h-7.35V99.75z"/>
	<path d="M598.15,100.25h-4.56l4.25-8.5h4.56L598.15,100.25z M594.4,99.75h3.44l3.75-7.5h-3.44L594.4,99.75z"/>
	<path d="M607.25,100.25h-8.65l4.25-8.5h4.4V100.25z M599.4,99.75h7.35v-7.5h-3.6L599.4,99.75z"/>
	<path d="M558.15,100.25h-4.56l4.25-8.5h4.56L558.15,100.25z M554.4,99.75h3.44l3.75-7.5h-3.44L554.4,99.75z"/>
	<path d="M563.15,100.25h-4.56l4.25-8.5h4.56L563.15,100.25z M559.4,99.75h3.44l3.75-7.5h-3.44L559.4,99.75z"/>
	<path d="M568.15,100.25h-4.56l4.25-8.5h4.56L568.15,100.25z M564.4,99.75h3.44l3.75-7.5h-3.44L564.4,99.75z"/>
	<path d="M573.15,100.25h-4.56l4.25-8.5h4.56L573.15,100.25z M569.4,99.75h3.44l3.75-7.5h-3.44L569.4,99.75z"/>
	<path d="M578.15,100.25h-4.56l4.25-8.5h4.56L578.15,100.25z M574.4,99.75h3.44l3.75-7.5h-3.44L574.4,99.75z"/>
	<path d="M583.15,100.25h-4.56l4.25-8.5h4.56L583.15,100.25z M579.4,99.75h3.44l3.75-7.5h-3.44L579.4,99.75z"/>
	<path d="M588.15,100.25h-4.56l4.25-8.5h4.56L588.15,100.25z M584.4,99.75h3.44l3.75-7.5h-3.44L584.4,99.75z"/>
	<path d="M593.15,100.25h-4.56l4.25-8.5h4.56L593.15,100.25z M589.4,99.75h3.44l3.75-7.5h-3.44L589.4,99.75z"/>
	<path d="M548.1,132.25h-4.71l4.25-4.25l-4.25-4.25h4.71l4.25,4.25L548.1,132.25z M544.6,131.75h3.29l3.75-3.75l-3.75-3.75h-3.29
		l3.75,3.75L544.6,131.75z"/>
	<path d="M554.1,132.25h-4.71l4.25-4.25l-4.25-4.25h4.71l4.25,4.25L554.1,132.25z M550.6,131.75h3.29l3.75-3.75l-3.75-3.75h-3.29
		l3.75,3.75L550.6,131.75z"/>
	<path d="M560.1,132.25h-4.71l4.25-4.25l-4.25-4.25h4.71l4.25,4.25L560.1,132.25z M556.6,131.75h3.29l3.75-3.75l-3.75-3.75h-3.29
		l3.75,3.75L556.6,131.75z"/>
	<path d="M566.1,132.25h-4.71l4.25-4.25l-4.25-4.25h4.71l4.25,4.25L566.1,132.25z M562.6,131.75h3.29l3.75-3.75l-3.75-3.75h-3.29
		l3.75,3.75L562.6,131.75z"/>
	<path d="M572.1,132.25h-4.71l4.25-4.25l-4.25-4.25h4.71l4.25,4.25L572.1,132.25z M568.6,131.75h3.29l3.75-3.75l-3.75-3.75h-3.29
		l3.75,3.75L568.6,131.75z"/>
	<path d="M578.1,132.25h-4.71l4.25-4.25l-4.25-4.25h4.71l4.25,4.25L578.1,132.25z M574.6,131.75h3.29l3.75-3.75l-3.75-3.75h-3.29
		l3.75,3.75L574.6,131.75z"/>
	<path d="M584.1,132.25h-4.71l4.25-4.25l-4.25-4.25h4.71l4.25,4.25L584.1,132.25z M580.6,131.75h3.29l3.75-3.75l-3.75-3.75h-3.29
		l3.75,3.75L580.6,131.75z"/>
	<path d="M590.1,132.25h-4.71l4.25-4.25l-4.25-4.25h4.71l4.25,4.25L590.1,132.25z M586.6,131.75h3.29l3.75-3.75l-3.75-3.75h-3.29
		l3.75,3.75L586.6,131.75z"/>
	<path d="M596.1,132.25h-4.71l4.25-4.25l-4.25-4.25h4.71l4.25,4.25L596.1,132.25z M592.6,131.75h3.29l3.75-3.75l-3.75-3.75h-3.29
		l3.75,3.75L592.6,131.75z"/>
	<path d="M602.1,132.25h-4.71l4.25-4.25l-4.25-4.25h4.71l4.25,4.25L602.1,132.25z M598.6,131.75h3.29l3.75-3.75l-3.75-3.75h-3.29
		l3.75,3.75L598.6,131.75z"/>
	<path d="M608.1,132.25h-4.71l4.25-4.25l-4.25-4.25h4.71l4.25,4.25L608.1,132.25z M604.6,131.75h3.29l3.75-3.75l-3.75-3.75h-3.29
		l3.75,3.75L604.6,131.75z"/>
	<path d="M256,356.25c-2.34,0-4.25-1.91-4.25-4.25s1.91-4.25,4.25-4.25s4.25,1.91,4.25,4.25S258.34,356.25,256,356.25z M256,348.25
		c-2.07,0-3.75,1.68-3.75,3.75s1.68,3.75,3.75,3.75s3.75-1.68,3.75-3.75S258.07,348.25,256,348.25z"/>
	<path d="M264.25,360.25h-16.5v-16.5h16.5V360.25z M248.25,359.75h15.5v-15.5h-15.5V359.75z"/>
	<path d="M256,418.25c-1.24,0-2.25-1.01-2.25-2.25s1.01-2.25,2.25-2.25s2.25,1.01,2.25,2.25S257.24,418.25,256,418.25z M256,414.25
		c-0.96,0-1.75,0.79-1.75,1.75s0.79,1.75,1.75,1.75s1.75-0.79,1.75-1.75S256.96,414.25,256,414.25z"/>
	<path d="M256,427.66L244.33,416L256,404.33L267.67,416L256,427.66z M245.04,416L256,426.96L266.96,416L256,405.04L245.04,416z"/>
	<path d="M65.25,97.25h-2.5v-2.5h2.5V97.25z M63.25,96.75h1.5v-1.5h-1.5V96.75z"/>
	<path d="M129.25,97.25h-2.5v-2.5h2.5V97.25z M127.25,96.75h1.5v-1.5h-1.5V96.75z"/>
	<polygon points="546.25,162.25 543.75,162.25 543.75,157.75 546.25,157.75 546.25,158.25 544.25,158.25 544.25,161.75 
		546.25,161.75 	"/>
	<polygon points="608.25,162.25 605.75,162.25 605.75,161.75 607.75,161.75 607.75,158.25 605.75,158.25 605.75,157.75 
		608.25,157.75 	"/>
	<rect x="545.5" y="159.75" width="61" height="0.5"/>
	<polygon points="546.25,194.25 543.75,194.25 543.75,189.75 546.25,189.75 546.25,190.25 544.25,190.25 544.25,193.75 
		546.25,193.75 	"/>
	<polygon points="608.25,194.25 605.75,194.25 605.75,193.75 607.75,193.75 607.75,190.25 605.75,190.25 605.75,189.75 
		608.25,189.75 	"/>
	<g>
		<g>
			<rect x="545.5" y="191.75" width="1.5" height="0.5"/>
			<path d="M604.49,192.25h-2.52v-0.5h2.52V192.25z M601.47,192.25h-2.52v-0.5h2.52V192.25z M598.44,192.25h-2.52v-0.5h2.52V192.25z
				 M595.41,192.25h-2.52v-0.5h2.52V192.25z M592.39,192.25h-2.52v-0.5h2.52V192.25z M589.36,192.25h-2.52v-0.5h2.52V192.25z
				 M586.34,192.25h-2.52v-0.5h2.52V192.25z M583.31,192.25h-2.52v-0.5h2.52V192.25z M580.29,192.25h-2.52v-0.5h2.52V192.25z
				 M577.26,192.25h-2.52v-0.5h2.52V192.25z M574.23,192.25h-2.52v-0.5h2.52V192.25z M571.21,192.25h-2.52v-0.5h2.52V192.25z
				 M568.18,192.25h-2.52v-0.5h2.52V192.25z M565.16,192.25h-2.52v-0.5h2.52V192.25z M562.13,192.25h-2.52v-0.5h2.52V192.25z
				 M559.1,192.25h-2.52v-0.5h2.52V192.25z M556.08,192.25h-2.52v-0.5h2.52V192.25z M553.05,192.25h-2.52v-0.5h2.52V192.25z
				 M550.03,192.25h-2.52v-0.5h2.52V192.25z"/>
			<rect x="605" y="191.75" width="1.5" height="0.5"/>
		</g>
	</g>
	<polygon points="546.25,226.25 543.75,226.25 543.75,221.75 546.25,221.75 546.25,222.25 544.25,222.25 544.25,225.75 
		546.25,225.75 	"/>
	<polygon points="608.25,226.25 605.75,226.25 605.75,225.75 607.75,225.75 607.75,222.25 605.75,222.25 605.75,221.75 
		608.25,221.75 	"/>
	<g>
		<g>
			<rect x="545.5" y="223.75" width="8" height="0.5"/>
			<rect x="555.02" y="223.75" width="1.51" height="0.5"/>
			<path d="M596.98,224.25h-1.51v-0.5h1.51V224.25z M593.95,224.25h-15.67v-0.5h15.67V224.25z M576.76,224.25h-1.51v-0.5h1.51
				V224.25z M573.73,224.25h-15.67v-0.5h15.67V224.25z"/>
			<rect x="598.5" y="223.75" width="8" height="0.5"/>
		</g>
	</g>
	<path d="M64,292.25c-2.34,0-4.25-1.91-4.25-4.25s1.91-4.25,4.25-4.25s4.25,1.91,4.25,4.25S66.34,292.25,64,292.25z M64,284.25
		c-2.07,0-3.75,1.68-3.75,3.75s1.68,3.75,3.75,3.75s3.75-1.68,3.75-3.75S66.07,284.25,64,284.25z"/>
	<path d="M64,282.25c-1.24,0-2.25-1.01-2.25-2.25s1.01-2.25,2.25-2.25s2.25,1.01,2.25,2.25S65.24,282.25,64,282.25z M64,278.25
		c-0.96,0-1.75,0.79-1.75,1.75s0.79,1.75,1.75,1.75s1.75-0.79,1.75-1.75S64.96,278.25,64,278.25z"/>
	<path d="M64,276.25c-0.69,0-1.25-0.56-1.25-1.25s0.56-1.25,1.25-1.25s1.25,0.56,1.25,1.25S64.69,276.25,64,276.25z M64,274.25
		c-0.41,0-0.75,0.34-0.75,0.75s0.34,0.75,0.75,0.75s0.75-0.34,0.75-0.75S64.41,274.25,64,274.25z"/>
	<path d="M58.34,295.91c-1.24,0-2.25-1.01-2.25-2.25s1.01-2.25,2.25-2.25s2.25,1.01,2.25,2.25S59.58,295.91,58.34,295.91z
		 M58.34,291.91c-0.96,0-1.75,0.79-1.75,1.75s0.79,1.75,1.75,1.75s1.75-0.79,1.75-1.75S59.3,291.91,58.34,291.91z"/>
	<path d="M72,290.25c-1.24,0-2.25-1.01-2.25-2.25s1.01-2.25,2.25-2.25s2.25,1.01,2.25,2.25S73.24,290.25,72,290.25z M72,286.25
		c-0.96,0-1.75,0.79-1.75,1.75s0.79,1.75,1.75,1.75s1.75-0.79,1.75-1.75S72.96,286.25,72,286.25z"/>
	<path d="M64,296.12c-4.48,0-8.12-3.65-8.12-8.12s3.65-8.12,8.12-8.12s8.12,3.65,8.12,8.12S68.48,296.12,64,296.12z M64,280.12
		c-4.34,0-7.88,3.53-7.88,7.88s3.53,7.88,7.88,7.88s7.88-3.53,7.88-7.88S68.34,280.12,64,280.12z"/>
	<path d="M64,301.12c-7.24,0-13.12-5.89-13.12-13.12s5.89-13.12,13.12-13.12s13.12,5.89,13.12,13.12S71.24,301.12,64,301.12z
		 M64,275.12c-7.1,0-12.88,5.78-12.88,12.88S56.9,300.88,64,300.88S76.88,295.1,76.88,288S71.1,275.12,64,275.12z"/>
	<rect x="191.75" y="343.75" width="0.5" height="16.5"/>
	<rect x="183.75" y="351.75" width="16.5" height="0.5"/>
	<rect x="187.75" y="339.75" width="8.5" height="0.5"/>
	<rect x="187.75" y="363.75" width="8.5" height="0.5"/>
	<rect x="203.75" y="347.75" width="0.5" height="8.5"/>
	<rect x="179.75" y="347.75" width="0.5" height="8.5"/>
	<rect x="193.23" y="282.52" transform="matrix(0.7071 -0.7071 0.7071 0.7071 -142.108 222.4609)" width="8.5" height="0.5"/>
	<rect x="197.23" y="289.13" transform="matrix(0.7065 -0.7077 0.7077 0.7065 -149.6674 225.8773)" width="0.5" height="8.5"/>
	<rect x="182.27" y="293.48" transform="matrix(0.7071 -0.7071 0.7071 0.7071 -153.068 217.9211)" width="8.5" height="0.5"/>
	<rect x="186.63" y="278.52" transform="matrix(0.7077 -0.7065 0.7065 0.7077 -145.1534 214.6652)" width="0.5" height="8.5"/>
	<path d="M192.18,289.84l-1.77-1.77l1.77-1.77l1.77,1.77L192.18,289.84z M191.12,288.07l1.06,1.06l1.06-1.06l-1.06-1.06
		L191.12,288.07z"/>
	<rect x="187.75" y="275.75" width="8.5" height="0.5"/>
	<rect x="187.75" y="299.75" width="8.5" height="0.5"/>
	<rect x="203.75" y="283.75" width="0.5" height="8.5"/>
	<rect x="179.75" y="283.75" width="0.5" height="8.5"/>
	<rect x="382.75" y="213.75" width="0.5" height="4.5"/>
	<rect x="384.75" y="213.75" width="0.5" height="4.5"/>
	<rect x="382.75" y="229.75" width="0.5" height="4.5"/>
	<rect x="384.75" y="229.75" width="0.5" height="4.5"/>
	<rect x="389.75" y="222.75" width="4.5" height="0.5"/>
	<rect x="389.75" y="224.75" width="4.5" height="0.5"/>
	<rect x="373.75" y="222.75" width="4.5" height="0.5"/>
	<rect x="373.75" y="224.75" width="4.5" height="0.5"/>
	<polygon points="376.25,220.25 375.75,220.25 375.75,215.75 380.25,215.75 380.25,216.25 376.25,216.25 	"/>
	<polygon points="380.25,232.25 375.75,232.25 375.75,227.75 376.25,227.75 376.25,231.75 380.25,231.75 	"/>
	<polygon points="392.25,232.25 387.75,232.25 387.75,231.75 391.75,231.75 391.75,227.75 392.25,227.75 	"/>
	<polygon points="392.25,220.25 391.75,220.25 391.75,216.25 387.75,216.25 387.75,215.75 392.25,215.75 	"/>
	<polygon points="380.25,222.25 379.75,222.25 379.75,219.75 382.25,219.75 382.25,220.25 380.25,220.25 	"/>
	<polygon points="382.25,228.25 379.75,228.25 379.75,225.75 380.25,225.75 380.25,227.75 382.25,227.75 	"/>
	<polygon points="388.25,228.25 385.75,228.25 385.75,227.75 387.75,227.75 387.75,225.75 388.25,225.75 	"/>
	<polygon points="388.25,222.25 387.75,222.25 387.75,220.25 385.75,220.25 385.75,219.75 388.25,219.75 	"/>
	<path d="M256,482.25c-1.24,0-2.25-1.01-2.25-2.25s1.01-2.25,2.25-2.25s2.25,1.01,2.25,2.25S257.24,482.25,256,482.25z M256,478.25
		c-0.96,0-1.75,0.79-1.75,1.75s0.79,1.75,1.75,1.75s1.75-0.79,1.75-1.75S256.96,478.25,256,478.25z"/>
	<path d="M256,491.66L244.33,480L256,468.33L267.67,480L256,491.66z M245.04,480L256,490.96L266.96,480L256,469.03L245.04,480z"/>
	<rect x="255.75" y="479.75" width="17" height="0.5"/>
	<g>
		<path d="M444.97,102.25h-7.8l3.89-6.75L444.97,102.25z M438.04,101.75h6.06l-3.04-5.25L438.04,101.75z"/>
		<path d="M451.89,90.25h-7.79L448,83.5L451.89,90.25z M444.97,89.75h6.05L448,84.5L444.97,89.75z"/>
		<path d="M458.82,102.25h-7.8l3.9-6.75L458.82,102.25z M451.89,101.75h6.06l-3.03-5.25L451.89,101.75z"/>
	</g>
	<g>
		<path d="M444.97,166.25h-7.8l3.89-6.75L444.97,166.25z M438.04,165.75h6.06l-3.04-5.25L438.04,165.75z"/>
		<path d="M451.89,154.25h-7.79l3.89-6.75L451.89,154.25z M444.97,153.75h6.05L448,148.5L444.97,153.75z"/>
		<path d="M458.82,166.25h-7.8l3.9-6.75L458.82,166.25z M451.89,165.75h6.06l-3.03-5.25L451.89,165.75z"/>
	</g>
	<path d="M448,162.25c-1.24,0-2.25-1.01-2.25-2.25s1.01-2.25,2.25-2.25s2.25,1.01,2.25,2.25S449.24,162.25,448,162.25z M448,158.25
		c-0.96,0-1.75,0.79-1.75,1.75s0.79,1.75,1.75,1.75s1.75-0.79,1.75-1.75S448.96,158.25,448,158.25z"/>
	<g>
		<path d="M456.25,221.29l-5.54-5.54h5.54V221.29z M451.91,216.25l3.84,3.84v-3.84H451.91z"/>
		<path d="M439.75,221.29v-5.54h5.54L439.75,221.29z M440.25,216.25v3.84l3.84-3.84H440.25z"/>
		<path d="M445.29,232.25h-5.54v-5.54L445.29,232.25z M440.25,231.75h3.84l-3.84-3.84V231.75z"/>
		<path d="M456.25,232.25h-5.54l5.54-5.54V232.25z M451.91,231.75h3.84v-3.84L451.91,231.75z"/>
	</g>
	<path d="M448,226.25c-1.24,0-2.25-1.01-2.25-2.25s1.01-2.25,2.25-2.25s2.25,1.01,2.25,2.25S449.24,226.25,448,226.25z M448,222.25
		c-0.96,0-1.75,0.79-1.75,1.75s0.79,1.75,1.75,1.75s1.75-0.79,1.75-1.75S448.96,222.25,448,222.25z"/>
	<rect x="118" y="286" width="8" height="4"/>
	<rect x="118" y="278" width="20" height="4"/>
	<rect x="118" y="294" width="20" height="4"/>
	<rect x="130" y="286" width="8" height="4"/>
	<rect x="118" y="350" width="8" height="4"/>
	<rect x="118" y="358" width="20" height="4"/>
	<rect x="130" y="350" width="8" height="4"/>
	<rect x="130" y="342" width="8" height="4"/>
	<rect x="118" y="342" width="8" height="4"/>
	<rect x="118" y="414" width="8" height="4"/>
	<rect x="130" y="414" width="8" height="4"/>
	<rect x="130" y="406" width="8" height="4"/>
	<rect x="118" y="406" width="8" height="4"/>
	<rect x="118" y="422" width="8" height="4"/>
	<rect x="130" y="422" width="8" height="4"/>
	<rect x="118" y="478" width="20" height="4"/>
	<rect x="130" y="470" width="8" height="4"/>
	<rect x="118" y="470" width="8" height="4"/>
	<rect x="118" y="486" width="8" height="4"/>
	<rect x="130" y="486" width="8" height="4"/>
	<path d="M319.25,223.25h-4.5v-4.5h4.5V223.25z M315.25,222.75h3.5v-3.5h-3.5V222.75z"/>
	<path d="M325.25,223.25h-4.5v-4.5h4.5V223.25z M321.25,222.75h3.5v-3.5h-3.5V222.75z"/>
	<path d="M319.25,229.25h-4.5v-4.5h4.5V229.25z M315.25,228.75h3.5v-3.5h-3.5V228.75z"/>
	<path d="M325.25,229.25h-4.5v-4.5h4.5V229.25z M321.25,228.75h3.5v-3.5h-3.5V228.75z"/>
	<rect x="309.75" y="210.92" transform="matrix(0.7071 -0.7071 0.7071 0.7071 -60.524 281.8823)" width="0.5" height="6.16"/>
	<rect x="329.75" y="230.92" transform="matrix(0.7071 -0.7071 0.7071 0.7071 -68.8082 301.8823)" width="0.5" height="6.16"/>
	<rect x="306.97" y="233.88" transform="matrix(0.7071 -0.7071 0.7071 0.7071 -74.7911 287.6883)" width="5.8" height="0.5"/>
	<rect x="327.09" y="213.75" transform="matrix(0.7071 -0.7071 0.7071 0.7071 -54.6661 296.0244)" width="5.82" height="0.5"/>
	<path d="M314.25,218.25h-2.5v-2.5h2.5V218.25z M312.25,217.75h1.5v-1.5h-1.5V217.75z"/>
	<path d="M328.25,218.25h-2.5v-2.5h2.5V218.25z M326.25,217.75h1.5v-1.5h-1.5V217.75z"/>
	<path d="M314.25,232.25h-2.5v-2.5h2.5V232.25z M312.25,231.75h1.5v-1.5h-1.5V231.75z"/>
	<path d="M328.25,232.25h-2.5v-2.5h2.5V232.25z M326.25,231.75h1.5v-1.5h-1.5V231.75z"/>
	<path d="M319.25,287.25h-4.5v-4.5h4.5V287.25z M315.25,286.75h3.5v-3.5h-3.5V286.75z"/>
	<path d="M325.25,287.25h-4.5v-4.5h4.5V287.25z M321.25,286.75h3.5v-3.5h-3.5V286.75z"/>
	<path d="M319.25,293.25h-4.5v-4.5h4.5V293.25z M315.25,292.75h3.5v-3.5h-3.5V292.75z"/>
	<path d="M325.25,293.25h-4.5v-4.5h4.5V293.25z M321.25,292.75h3.5v-3.5h-3.5V292.75z"/>
	<rect x="311.75" y="276.92" transform="matrix(0.7071 -0.7071 0.7071 0.7071 -106.6072 302.6274)" width="0.5" height="6.16"/>
	<rect x="327.75" y="292.92" transform="matrix(0.7071 -0.7071 0.7071 0.7071 -113.2346 318.6274)" width="0.5" height="6.16"/>
	<rect x="308.97" y="295.88" transform="matrix(0.7071 -0.7071 0.7071 0.7071 -118.0459 307.2619)" width="5.8" height="0.5"/>
	<rect x="325.09" y="279.75" transform="matrix(0.7071 -0.7071 0.7071 0.7071 -101.9209 313.9411)" width="5.82" height="0.5"/>
	<path d="M310.25,278.25h-2.5v-2.5h2.5V278.25z M308.25,277.75h1.5v-1.5h-1.5V277.75z"/>
	<path d="M332.25,278.25h-2.5v-2.5h2.5V278.25z M330.25,277.75h1.5v-1.5h-1.5V277.75z"/>
	<path d="M310.25,300.25h-2.5v-2.5h2.5V300.25z M308.25,299.75h1.5v-1.5h-1.5V299.75z"/>
	<path d="M332.25,300.25h-2.5v-2.5h2.5V300.25z M330.25,299.75h1.5v-1.5h-1.5V299.75z"/>
	<path d="M319.25,415.25h-4.5v-4.5h4.5V415.25z M315.25,414.75h3.5v-3.5h-3.5V414.75z"/>
	<path d="M325.25,415.25h-4.5v-4.5h4.5V415.25z M321.25,414.75h3.5v-3.5h-3.5V414.75z"/>
	<path d="M319.25,421.25h-4.5v-4.5h4.5V421.25z M315.25,420.75h3.5v-3.5h-3.5V420.75z"/>
	<path d="M325.25,421.25h-4.5v-4.5h4.5V421.25z M321.25,420.75h3.5v-3.5h-3.5V420.75z"/>
	<path d="M314.25,410.25h-2.5v-2.5h2.5V410.25z M312.25,409.75h1.5v-1.5h-1.5V409.75z"/>
	<path d="M328.25,410.25h-2.5v-2.5h2.5V410.25z M326.25,409.75h1.5v-1.5h-1.5V409.75z"/>
	<path d="M314.25,424.25h-2.5v-2.5h2.5V424.25z M312.25,423.75h1.5v-1.5h-1.5V423.75z"/>
	<path d="M328.25,424.25h-2.5v-2.5h2.5V424.25z M326.25,423.75h1.5v-1.5h-1.5V423.75z"/>
	<rect x="382.75" y="277.75" width="0.5" height="4.5"/>
	<rect x="384.75" y="277.75" width="0.5" height="4.5"/>
	<rect x="382.75" y="293.75" width="0.5" height="4.5"/>
	<rect x="384.75" y="293.75" width="0.5" height="4.5"/>
	<rect x="389.75" y="286.75" width="4.5" height="0.5"/>
	<rect x="389.75" y="288.75" width="4.5" height="0.5"/>
	<rect x="373.75" y="286.75" width="4.5" height="0.5"/>
	<rect x="373.75" y="288.75" width="4.5" height="0.5"/>
	<polygon points="376.25,284.25 375.75,284.25 375.75,279.75 380.25,279.75 380.25,280.25 376.25,280.25 	"/>
	<polygon points="380.25,296.25 375.75,296.25 375.75,291.75 376.25,291.75 376.25,295.75 380.25,295.75 	"/>
	<polygon points="392.25,296.25 387.75,296.25 387.75,295.75 391.75,295.75 391.75,291.75 392.25,291.75 	"/>
	<polygon points="392.25,284.25 391.75,284.25 391.75,280.25 387.75,280.25 387.75,279.75 392.25,279.75 	"/>
	<polygon points="385.06,285.17 384,284.11 382.94,285.17 382.59,284.82 384,283.41 385.41,284.82 	"/>
	<polygon points="380.82,289.41 379.41,288 380.82,286.59 381.17,286.94 380.11,288 381.17,289.06 	"/>
	<polygon points="384,292.59 382.59,291.18 382.94,290.83 384,291.89 385.06,290.83 385.41,291.18 	"/>
	<polygon points="387.18,289.41 386.83,289.06 387.89,288 386.83,286.94 387.18,286.59 388.59,288 	"/>
	<rect x="382.75" y="341.75" width="0.5" height="4.5"/>
	<rect x="384.75" y="341.75" width="0.5" height="4.5"/>
	<rect x="382.75" y="357.75" width="0.5" height="4.5"/>
	<rect x="384.75" y="357.75" width="0.5" height="4.5"/>
	<rect x="389.75" y="350.75" width="4.5" height="0.5"/>
	<rect x="389.75" y="352.75" width="4.5" height="0.5"/>
	<rect x="373.75" y="350.75" width="4.5" height="0.5"/>
	<rect x="373.75" y="352.75" width="4.5" height="0.5"/>
	<polygon points="376.25,348.25 375.75,348.25 375.75,343.75 380.25,343.75 380.25,344.25 376.25,344.25 	"/>
	<polygon points="380.25,360.25 375.75,360.25 375.75,355.75 376.25,355.75 376.25,359.75 380.25,359.75 	"/>
	<polygon points="392.25,360.25 387.75,360.25 387.75,359.75 391.75,359.75 391.75,355.75 392.25,355.75 	"/>
	<polygon points="392.25,348.25 391.75,348.25 391.75,344.25 387.75,344.25 387.75,343.75 392.25,343.75 	"/>
	<path d="M383.25,351.25h-2.5v-2.5h2.5V351.25z M381.25,350.75h1.5v-1.5h-1.5V350.75z"/>
	<path d="M387.25,351.25h-2.5v-2.5h2.5V351.25z M385.25,350.75h1.5v-1.5h-1.5V350.75z"/>
	<path d="M383.25,355.25h-2.5v-2.5h2.5V355.25z M381.25,354.75h1.5v-1.5h-1.5V354.75z"/>
	<path d="M387.25,355.25h-2.5v-2.5h2.5V355.25z M385.25,354.75h1.5v-1.5h-1.5V354.75z"/>
	<rect x="63.75" y="341.75" width="0.5" height="2.5"/>
	<rect x="61.88" y="341.95" transform="matrix(0.9776 -0.2104 0.2104 0.9776 -70.83 20.7596)" width="0.5" height="2.49"/>
	<rect x="60.09" y="342.52" transform="matrix(0.9126 -0.4088 0.4088 0.9126 -135.2784 54.7152)" width="0.5" height="2.51"/>
	<rect x="58.46" y="343.47" transform="matrix(0.8083 -0.5888 0.5888 0.8083 -191.725 100.6686)" width="0.5" height="2.5"/>
	<rect x="57.06" y="344.73" transform="matrix(0.6711 -0.7413 0.7413 0.6711 -237.6429 156.2711)" width="0.5" height="2.5"/>
	<rect x="55.95" y="346.25" transform="matrix(0.5003 -0.8658 0.8658 0.5003 -272.7919 222.2946)" width="0.5" height="2.5"/>
	<rect x="55.19" y="347.97" transform="matrix(0.3101 -0.9507 0.9507 0.3101 -293.7552 293.6252)" width="0.5" height="2.5"/>
	<rect x="54.79" y="349.8" transform="matrix(0.105 -0.9945 0.9945 0.105 -299.8499 368.9242)" width="0.5" height="2.5"/>
	<rect x="53.79" y="352.69" transform="matrix(0.9944 -0.1055 0.1055 0.9944 -36.9279 7.7768)" width="2.5" height="0.5"/>
	<rect x="54.19" y="354.53" transform="matrix(0.9506 -0.3104 0.3104 0.9506 -107.3738 34.7268)" width="2.5" height="0.5"/>
	<rect x="54.96" y="356.25" transform="matrix(0.8654 -0.5011 0.5011 0.8654 -171.0682 76.1463)" width="2.5" height="0.5"/>
	<rect x="56.06" y="357.77" transform="matrix(0.7414 -0.6711 0.6711 0.7414 -225.4348 131.0438)" width="2.5" height="0.5"/>
	<rect x="57.46" y="359.03" transform="matrix(0.5892 -0.808 0.808 0.5892 -266.184 195.0457)" width="2.5" height="0.5"/>
	<rect x="59.09" y="359.97" transform="matrix(0.4089 -0.9126 0.9126 0.4089 -293.0625 267.9772)" width="2.51" height="0.5"/>
	<rect x="60.88" y="360.55" transform="matrix(0.21 -0.9777 0.9777 0.21 -303.6769 345.7819)" width="2.49" height="0.5"/>
	<rect x="63.75" y="359.75" width="0.5" height="2.5"/>
	<rect x="65.62" y="359.56" transform="matrix(0.9776 -0.2104 0.2104 0.9776 -74.4521 21.941)" width="0.5" height="2.49"/>
	<rect x="67.41" y="358.97" transform="matrix(0.9126 -0.4088 0.4088 0.9126 -141.3643 59.1456)" width="0.5" height="2.51"/>
	<rect x="69.04" y="358.03" transform="matrix(0.8083 -0.5888 0.5888 0.8083 -198.2698 109.6904)" width="0.5" height="2.5"/>
	<rect x="70.44" y="356.77" transform="matrix(0.6711 -0.7413 0.7413 0.6711 -242.1683 170.1503)" width="0.5" height="2.5"/>
	<rect x="71.55" y="355.25" transform="matrix(0.5003 -0.8658 0.8658 0.5003 -272.7945 240.29)" width="0.5" height="2.5"/>
	<rect x="72.31" y="353.53" transform="matrix(0.3101 -0.9507 0.9507 0.3101 -287.2307 313.7365)" width="0.5" height="2.5"/>
	<rect x="72.71" y="351.69" transform="matrix(0.105 -0.9945 0.9945 0.105 -285.7001 388.4265)" width="0.5" height="2.5"/>
	<rect x="71.7" y="350.81" transform="matrix(0.9944 -0.1055 0.1055 0.9944 -36.6286 9.6557)" width="2.5" height="0.5"/>
	<rect x="71.31" y="348.97" transform="matrix(0.9506 -0.3104 0.3104 0.9506 -104.8027 39.7655)" width="2.5" height="0.5"/>
	<rect x="70.55" y="347.25" transform="matrix(0.8654 -0.5011 0.5011 0.8654 -164.4601 82.7469)" width="2.5" height="0.5"/>
	<rect x="69.44" y="345.73" transform="matrix(0.7414 -0.6711 0.6711 0.7414 -213.895 136.9093)" width="2.5" height="0.5"/>
	<rect x="68.04" y="344.47" transform="matrix(0.5892 -0.808 0.808 0.5892 -250.0725 197.6127)" width="2.5" height="0.5"/>
	<rect x="66.41" y="343.52" transform="matrix(0.4089 -0.9126 0.9126 0.4089 -273.7243 264.934)" width="2.51" height="0.5"/>
	<rect x="64.62" y="342.95" transform="matrix(0.21 -0.9777 0.9777 0.21 -283.5049 335.5269)" width="2.49" height="0.5"/>
	<rect x="63.75" y="405.75" width="0.5" height="8.5"/>
	<rect x="61.88" y="405.95" transform="matrix(0.9776 -0.2104 0.2104 0.9776 -84.2981 22.1927)" width="0.5" height="2.49"/>
	<rect x="60.09" y="406.52" transform="matrix(0.9126 -0.4088 0.4088 0.9126 -161.4447 60.3086)" width="0.5" height="2.51"/>
	<rect x="58.46" y="407.47" transform="matrix(0.8083 -0.5888 0.5888 0.8083 -229.4103 112.9403)" width="0.5" height="2.5"/>
	<rect x="57.06" y="408.73" transform="matrix(0.6711 -0.7413 0.7413 0.6711 -285.0891 177.3193)" width="0.5" height="2.5"/>
	<rect x="55.95" y="410.25" transform="matrix(0.5003 -0.8658 0.8658 0.5003 -328.2048 254.2727)" width="0.5" height="2.5"/>
	<rect x="55.19" y="411.97" transform="matrix(0.3101 -0.9507 0.9507 0.3101 -354.5997 337.7772)" width="0.5" height="2.5"/>
	<rect x="54.79" y="413.8" transform="matrix(0.105 -0.9945 0.9945 0.105 -363.496 426.2023)" width="0.5" height="2.5"/>
	<rect x="53.79" y="416.69" transform="matrix(0.9944 -0.1055 0.1055 0.9944 -43.6798 8.1339)" width="2.5" height="0.5"/>
	<rect x="54.19" y="418.53" transform="matrix(0.9506 -0.3104 0.3104 0.9506 -127.2372 37.8873)" width="2.5" height="0.5"/>
	<rect x="54.96" y="420.25" transform="matrix(0.8654 -0.5011 0.5011 0.8654 -203.137 84.7604)" width="2.5" height="0.5"/>
	<rect x="56.06" y="421.77" transform="matrix(0.7414 -0.6711 0.6711 0.7414 -268.3831 147.5944)" width="2.5" height="0.5"/>
	<rect x="57.46" y="423.03" transform="matrix(0.5892 -0.808 0.808 0.5892 -317.8971 221.3395)" width="2.5" height="0.5"/>
	<rect x="59.09" y="423.97" transform="matrix(0.4089 -0.9126 0.9126 0.4089 -351.4663 305.8048)" width="2.51" height="0.5"/>
	<rect x="60.88" y="424.55" transform="matrix(0.21 -0.9777 0.9777 0.21 -366.2499 396.3421)" width="2.49" height="0.5"/>
	<rect x="63.75" y="423.75" width="0.5" height="2.5"/>
	<rect x="65.62" y="423.56" transform="matrix(0.9776 -0.2104 0.2104 0.9776 -87.9201 23.3742)" width="0.5" height="2.49"/>
	<rect x="67.41" y="422.97" transform="matrix(0.9126 -0.4088 0.4088 0.9126 -167.5306 64.7391)" width="0.5" height="2.51"/>
	<rect x="69.04" y="422.03" transform="matrix(0.8083 -0.5888 0.5888 0.8083 -235.955 121.962)" width="0.5" height="2.5"/>
	<rect x="70.44" y="420.77" transform="matrix(0.6711 -0.7413 0.7413 0.6711 -289.6144 191.1984)" width="0.5" height="2.5"/>
	<rect x="71.55" y="419.25" transform="matrix(0.5003 -0.8658 0.8658 0.5003 -328.2075 272.2681)" width="0.5" height="2.5"/>
	<rect x="72.31" y="417.53" transform="matrix(0.3101 -0.9507 0.9507 0.3101 -348.0753 357.8885)" width="0.5" height="2.5"/>
	<rect x="72.71" y="415.69" transform="matrix(0.105 -0.9945 0.9945 0.105 -349.3461 445.7046)" width="0.5" height="2.5"/>
	<rect x="71.7" y="414.81" transform="matrix(0.9944 -0.1055 0.1055 0.9944 -43.3805 10.0129)" width="2.5" height="0.5"/>
	<rect x="71.31" y="412.97" transform="matrix(0.9506 -0.3104 0.3104 0.9506 -124.6661 42.926)" width="2.5" height="0.5"/>
	<rect x="70.55" y="411.25" transform="matrix(0.8654 -0.5011 0.5011 0.8654 -196.5289 91.361)" width="2.5" height="0.5"/>
	<rect x="69.44" y="409.73" transform="matrix(0.7414 -0.6711 0.6711 0.7414 -256.8432 153.4599)" width="2.5" height="0.5"/>
	<rect x="68.04" y="408.47" transform="matrix(0.5892 -0.808 0.808 0.5892 -301.7856 223.9065)" width="2.5" height="0.5"/>
	<rect x="66.41" y="407.52" transform="matrix(0.4089 -0.9126 0.9126 0.4089 -332.1281 302.7616)" width="2.51" height="0.5"/>
	<rect x="64.62" y="406.95" transform="matrix(0.21 -0.9777 0.9777 0.21 -346.0779 386.0871)" width="2.49" height="0.5"/>
	<rect x="63.75" y="469.75" width="0.5" height="2.5"/>
	<rect x="61.88" y="469.95" transform="matrix(0.9776 -0.2104 0.2104 0.9776 -97.7661 23.6259)" width="0.5" height="2.49"/>
	<rect x="60.09" y="470.52" transform="matrix(0.9126 -0.4088 0.4088 0.9126 -187.611 65.9021)" width="0.5" height="2.51"/>
	<rect x="58.46" y="471.47" transform="matrix(0.8083 -0.5888 0.5888 0.8083 -267.0956 125.212)" width="0.5" height="2.5"/>
	<rect x="55.19" y="475.97" transform="matrix(0.3101 -0.9507 0.9507 0.3101 -415.4443 381.9292)" width="0.5" height="2.5"/>
	<rect x="54.79" y="477.8" transform="matrix(0.105 -0.9945 0.9945 0.105 -427.142 483.4803)" width="0.5" height="2.5"/>
	<rect x="53.79" y="480.69" transform="matrix(0.9944 -0.1055 0.1055 0.9944 -50.4317 8.4911)" width="2.5" height="0.5"/>
	<rect x="54.19" y="482.53" transform="matrix(0.9506 -0.3104 0.3104 0.9506 -147.1006 41.0478)" width="2.5" height="0.5"/>
	<rect x="59.09" y="487.97" transform="matrix(0.4089 -0.9126 0.9126 0.4089 -409.8701 343.6324)" width="2.51" height="0.5"/>
	<rect x="60.88" y="488.55" transform="matrix(0.21 -0.9777 0.9777 0.21 -428.8228 446.9024)" width="2.49" height="0.5"/>
	<rect x="67.41" y="486.97" transform="matrix(0.9126 -0.4088 0.4088 0.9126 -193.6969 70.3325)" width="0.5" height="2.51"/>
	<rect x="69.04" y="486.03" transform="matrix(0.8083 -0.5888 0.5888 0.8083 -273.6403 134.2337)" width="0.5" height="2.5"/>
	<rect x="70.44" y="484.77" transform="matrix(0.6711 -0.7413 0.7413 0.6711 -337.0605 212.2465)" width="0.5" height="2.5"/>
	<rect x="71.55" y="483.25" transform="matrix(0.5003 -0.8658 0.8658 0.5003 -383.6204 304.2462)" width="0.5" height="2.5"/>
	<rect x="72.31" y="481.53" transform="matrix(0.3101 -0.9507 0.9507 0.3101 -408.9198 402.0406)" width="0.5" height="2.5"/>
	<rect x="72.71" y="479.69" transform="matrix(0.105 -0.9945 0.9945 0.105 -412.9922 502.9826)" width="0.5" height="2.5"/>
	<rect x="70.55" y="475.25" transform="matrix(0.8654 -0.5011 0.5011 0.8654 -228.5977 99.9752)" width="2.5" height="0.5"/>
	<rect x="69.44" y="473.73" transform="matrix(0.7414 -0.6711 0.6711 0.7414 -299.7915 170.0105)" width="2.5" height="0.5"/>
	<rect x="68.04" y="472.47" transform="matrix(0.5892 -0.808 0.808 0.5892 -353.4987 250.2003)" width="2.5" height="0.5"/>
	<path d="M64,483.18L60.82,480l3.18-3.18l3.18,3.18L64,483.18z M61.53,480l2.48,2.48l2.47-2.48L64,477.52L61.53,480z"/>
	<polygon points="65.06,477.17 64,476.11 62.94,477.17 62.59,476.82 64,475.41 65.41,476.82 	"/>
	<polygon points="60.82,481.41 59.41,480 60.82,478.59 61.17,478.94 60.11,480 61.17,481.06 	"/>
	<polygon points="64,484.59 62.59,483.18 62.94,482.83 64,483.89 65.06,482.83 65.41,483.18 	"/>
	<polygon points="67.18,481.41 66.83,481.06 67.89,480 66.83,478.94 67.18,478.59 68.59,480 	"/>
	<g>
		<path d="M451.61,281.75h-7.23l3.61-6.25L451.61,281.75z M445.25,281.25h5.49L448,276.5L445.25,281.25z"/>
		<path d="M455.07,287.75h-14.15l2.6-4.5h8.95L455.07,287.75z M441.79,287.25h12.41l-2.02-3.5h-8.37L441.79,287.25z"/>
		<path d="M458.82,294.25h-21.65l2.89-5h15.87L458.82,294.25z M438.04,293.75h19.91l-2.31-4h-15.29L438.04,293.75z"/>
	</g>
	<path d="M194.25,418.25h-4.5v-4.5h4.5V418.25z M190.25,417.75h3.5v-3.5h-3.5V417.75z"/>
	<rect x="191.75" y="404.69" transform="matrix(0.7071 -0.7071 0.7071 0.7071 -237.9209 257.6081)" width="0.5" height="22.63"/>
	<rect x="180.69" y="415.75" transform="matrix(0.7071 -0.7071 0.7071 0.7071 -237.9209 257.6081)" width="22.63" height="0.5"/>
	<rect x="196.75" y="399.69" transform="matrix(0.7071 -0.7071 0.7071 0.7071 -232.9209 259.6791)" width="0.5" height="22.63"/>
	<rect x="186.75" y="409.69" transform="matrix(0.7071 -0.7071 0.7071 0.7071 -242.9209 255.537)" width="0.5" height="22.63"/>
	<rect x="185.69" y="420.75" transform="matrix(0.7071 -0.7071 0.7071 0.7071 -239.992 262.6081)" width="22.63" height="0.5"/>
	<rect x="175.69" y="410.75" transform="matrix(0.7071 -0.7071 0.7071 0.7071 -235.8499 252.6081)" width="22.63" height="0.5"/>
	<path d="M185.25,409.25h-2.5v-2.5h2.5V409.25z M183.25,408.75h1.5v-1.5h-1.5V408.75z"/>
	<path d="M201.25,425.25h-2.5v-2.5h2.5V425.25z M199.25,424.75h1.5v-1.5h-1.5V424.75z"/>
	<path d="M185.25,425.25h-2.5v-2.5h2.5V425.25z M183.25,424.75h1.5v-1.5h-1.5V424.75z"/>
	<path d="M201.25,409.25h-2.5v-2.5h2.5V409.25z M199.25,408.75h1.5v-1.5h-1.5V408.75z"/>
	<path d="M257.25,281.25h-2.5v-2.5h2.5V281.25z M255.25,280.75h1.5v-1.5h-1.5V280.75z"/>
	<path d="M257.25,297.25h-2.5v-2.5h2.5V297.25z M255.25,296.75h1.5v-1.5h-1.5V296.75z"/>
	<path d="M265.25,289.25h-2.5v-2.5h2.5V289.25z M263.25,288.75h1.5v-1.5h-1.5V288.75z"/>
	<path d="M249.25,289.25h-2.5v-2.5h2.5V289.25z M247.25,288.75h1.5v-1.5h-1.5V288.75z"/>
	<path d="M257.25,289.25h-2.5v-2.5h2.5V289.25z M255.25,288.75h1.5v-1.5h-1.5V288.75z"/>
	<rect x="255.75" y="281.75" width="0.5" height="4.5"/>
	<rect x="255.75" y="289.75" width="0.5" height="4.5"/>
	<rect x="257.75" y="287.75" width="4.5" height="0.5"/>
	<rect x="249.75" y="287.75" width="4.5" height="0.5"/>
	<rect x="257.58" y="284.92" transform="matrix(0.7071 -0.7071 0.7071 0.7071 -125.836 266.5448)" width="2.51" height="0.5"/>
	<rect x="251.92" y="290.58" transform="matrix(0.7071 -0.7071 0.7071 0.7071 -131.4962 264.2003)" width="2.51" height="0.5"/>
	<rect x="258.58" y="289.58" transform="matrix(0.7071 -0.7071 0.7071 0.7071 -129.8383 268.2027)" width="0.5" height="2.51"/>
	<rect x="252.92" y="283.92" transform="matrix(0.7071 -0.7071 0.7071 0.7071 -127.4938 262.5425)" width="0.5" height="2.51"/>
	<path d="M251.25,283.25h-4.5v-4.5h4.5V283.25z M247.25,282.75h3.5v-3.5h-3.5V282.75z"/>
	<path d="M265.25,283.25h-4.5v-4.5h4.5V283.25z M261.25,282.75h3.5v-3.5h-3.5V282.75z"/>
	<path d="M251.25,297.25h-4.5v-4.5h4.5V297.25z M247.25,296.75h3.5v-3.5h-3.5V296.75z"/>
	<path d="M265.25,297.25h-4.5v-4.5h4.5V297.25z M261.25,296.75h3.5v-3.5h-3.5V296.75z"/>
	<path d="M319.25,471.25h-2.5v-2.5h2.5V471.25z M317.25,470.75h1.5v-1.5h-1.5V470.75z"/>
	<path d="M323.25,471.25h-2.5v-2.5h2.5V471.25z M321.25,470.75h1.5v-1.5h-1.5V470.75z"/>
	<path d="M319.25,475.25h-2.5v-2.5h2.5V475.25z M317.25,474.75h1.5v-1.5h-1.5V474.75z"/>
	<path d="M323.25,475.25h-2.5v-2.5h2.5V475.25z M321.25,474.75h1.5v-1.5h-1.5V474.75z"/>
	<path d="M319.25,487.25h-2.5v-2.5h2.5V487.25z M317.25,486.75h1.5v-1.5h-1.5V486.75z"/>
	<path d="M323.25,487.25h-2.5v-2.5h2.5V487.25z M321.25,486.75h1.5v-1.5h-1.5V486.75z"/>
	<path d="M319.25,491.25h-2.5v-2.5h2.5V491.25z M317.25,490.75h1.5v-1.5h-1.5V490.75z"/>
	<path d="M323.25,491.25h-2.5v-2.5h2.5V491.25z M321.25,490.75h1.5v-1.5h-1.5V490.75z"/>
	<path d="M331.25,479.25h-2.5v-2.5h2.5V479.25z M329.25,478.75h1.5v-1.5h-1.5V478.75z"/>
	<path d="M331.25,483.25h-2.5v-2.5h2.5V483.25z M329.25,482.75h1.5v-1.5h-1.5V482.75z"/>
	<path d="M327.25,479.25h-2.5v-2.5h2.5V479.25z M325.25,478.75h1.5v-1.5h-1.5V478.75z"/>
	<path d="M327.25,483.25h-2.5v-2.5h2.5V483.25z M325.25,482.75h1.5v-1.5h-1.5V482.75z"/>
	<path d="M315.25,479.25h-2.5v-2.5h2.5V479.25z M313.25,478.75h1.5v-1.5h-1.5V478.75z"/>
	<path d="M315.25,483.25h-2.5v-2.5h2.5V483.25z M313.25,482.75h1.5v-1.5h-1.5V482.75z"/>
	<path d="M311.25,479.25h-2.5v-2.5h2.5V479.25z M309.25,478.75h1.5v-1.5h-1.5V478.75z"/>
	<path d="M311.25,483.25h-2.5v-2.5h2.5V483.25z M309.25,482.75h1.5v-1.5h-1.5V482.75z"/>
	<path d="M319.25,539.25h-2.5v-2.5h2.5V539.25z M317.25,538.75h1.5v-1.5h-1.5V538.75z"/>
	<path d="M323.25,539.25h-2.5v-2.5h2.5V539.25z M321.25,538.75h1.5v-1.5h-1.5V538.75z"/>
	<path d="M319.25,551.25h-2.5v-2.5h2.5V551.25z M317.25,550.75h1.5v-1.5h-1.5V550.75z"/>
	<path d="M323.25,551.25h-2.5v-2.5h2.5V551.25z M321.25,550.75h1.5v-1.5h-1.5V550.75z"/>
	<path d="M327.25,543.25h-2.5v-2.5h2.5V543.25z M325.25,542.75h1.5v-1.5h-1.5V542.75z"/>
	<path d="M327.25,547.25h-2.5v-2.5h2.5V547.25z M325.25,546.75h1.5v-1.5h-1.5V546.75z"/>
	<path d="M315.25,543.25h-2.5v-2.5h2.5V543.25z M313.25,542.75h1.5v-1.5h-1.5V542.75z"/>
	<path d="M315.25,547.25h-2.5v-2.5h2.5V547.25z M313.25,546.75h1.5v-1.5h-1.5V546.75z"/>
	<path d="M321.25,545.25h-2.5v-2.5h2.5V545.25z M319.25,544.75h1.5v-1.5h-1.5V544.75z"/>
	<rect x="131.75" y="531.75" width="0.5" height="24.5"/>
	<rect x="123.75" y="531.75" width="0.5" height="24.5"/>
	<rect x="115.75" y="531.75" width="0.5" height="24.5"/>
	<rect x="139.75" y="531.75" width="0.5" height="24.5"/>
	<rect x="115.75" y="547.75" width="24.5" height="0.5"/>
	<rect x="115.75" y="539.75" width="24.5" height="0.5"/>
	<rect x="115.75" y="531.75" width="24.5" height="0.5"/>
	<rect x="115.75" y="555.75" width="24.5" height="0.5"/>
	<path d="M255.99,540.11l-1.77-1.77l1.77-1.77l1.77,1.77L255.99,540.11z M254.93,538.34l1.06,1.06l1.06-1.06l-1.06-1.06
		L254.93,538.34z"/>
	<path d="M250.34,550.01l-6.01-6.01l6.01-6.01l6.01,6.01L250.34,550.01z M245.03,544l5.3,5.3l5.3-5.3l-5.3-5.3L245.03,544z"/>
	<path d="M261.65,550.01l-6.01-6.01l6.01-6.01l6.01,6.01L261.65,550.01z M256.35,544l5.3,5.3l5.3-5.3l-5.3-5.3L256.35,544z"/>
	<path d="M256,551.42l-1.77-1.77l1.77-1.77l1.77,1.77L256,551.42z M254.94,549.66l1.06,1.06l1.06-1.06L256,548.6L254.94,549.66z"/>
	<path d="M319.25,351.25h-4.5v-4.5h4.5V351.25z M315.25,350.75h3.5v-3.5h-3.5V350.75z"/>
	<path d="M325.25,351.25h-4.5v-4.5h4.5V351.25z M321.25,350.75h3.5v-3.5h-3.5V350.75z"/>
	<path d="M319.25,357.25h-4.5v-4.5h4.5V357.25z M315.25,356.75h3.5v-3.5h-3.5V356.75z"/>
	<path d="M325.25,357.25h-4.5v-4.5h4.5V357.25z M321.25,356.75h3.5v-3.5h-3.5V356.75z"/>
	<path d="M313.25,345.25h-2.5v-2.5h2.5V345.25z M311.25,344.75h1.5v-1.5h-1.5V344.75z"/>
	<path d="M329.25,345.25h-2.5v-2.5h2.5V345.25z M327.25,344.75h1.5v-1.5h-1.5V344.75z"/>
	<path d="M313.25,361.25h-2.5v-2.5h2.5V361.25z M311.25,360.75h1.5v-1.5h-1.5V360.75z"/>
	<path d="M329.25,361.25h-2.5v-2.5h2.5V361.25z M327.25,360.75h1.5v-1.5h-1.5V360.75z"/>
	<rect x="314" y="343.75" width="8.5" height="0.5"/>
	<rect x="317.5" y="359.75" width="8.5" height="0.5"/>
	<rect x="327.75" y="346" width="0.5" height="8.5"/>
	<rect x="311.75" y="349.5" width="0.5" height="8.5"/>
	<path d="M256,619.66l-11.67-11.67L256,596.33l11.67,11.67L256,619.66z M245.04,607.99L256,618.95l10.96-10.96L256,597.03
		L245.04,607.99z"/>
	<path d="M256,595.58l-1.59-1.59l1.59-1.59l1.59,1.59L256,595.58z M254.76,593.99l1.24,1.24l1.24-1.24l-1.24-1.24L254.76,593.99z"/>
	<path d="M256,623.58l-1.59-1.59l1.59-1.59l1.59,1.59L256,623.58z M254.77,621.99l1.24,1.24l1.24-1.24l-1.24-1.24L254.77,621.99z"/>
	<path d="M270.01,609.59l-1.59-1.59l1.59-1.59l1.59,1.59L270.01,609.59z M268.77,608l1.24,1.24l1.24-1.24l-1.24-1.24L268.77,608z"/>
	<path d="M242.01,609.59l-1.59-1.59l1.59-1.59l1.59,1.59L242.01,609.59z M240.77,608l1.24,1.24l1.24-1.24l-1.24-1.24L240.77,608z"/>
	<path d="M256.01,616.66l-0.09-0.09l-8.57-8.57l0.09-0.09l8.57-8.57l0.09,0.09l8.57,8.57l-0.09,0.09L256.01,616.66z M247.7,608
		l8.31,8.31l8.31-8.31l-8.31-8.31L247.7,608z"/>
	<path d="M257.12,609.12h-2.25v-2.25h2.25V609.12z M255.12,608.88h1.75v-1.75h-1.75V608.88z"/>
	<path d="M64,554.25c-5.65,0-10.25-4.6-10.25-10.25c0-5.65,4.6-10.25,10.25-10.25s10.25,4.6,10.25,10.25
		C74.25,549.65,69.65,554.25,64,554.25z M64,534.25c-5.38,0-9.75,4.37-9.75,9.75s4.37,9.75,9.75,9.75s9.75-4.37,9.75-9.75
		S69.38,534.25,64,534.25z"/>
	<path d="M64,618c-5.51,0-10-4.49-10-10s4.49-10,10-10s10,4.49,10,10S69.51,618,64,618z M64,602c-3.31,0-6,2.69-6,6s2.69,6,6,6
		s6-2.69,6-6S67.31,602,64,602z"/>
	<path d="M516.12,296.12h-8.25v-80.25h8.25V296.12z M508.12,295.88h7.75v-79.75h-7.75V295.88z"/>
	<polygon points="512.12,296.01 511.88,296.01 507.87,215.88 508.12,215.87 508.12,215.99 512,293.5 515.88,215.87 516.13,215.88 
		516.12,216.01 	"/>
</g>
</svg>
