# Blender v2.77 (sub 0) OBJ File: ''
# www.blender.org
v -0.085285 0.091437 0.068012
v -0.119932 0.141801 0.025766
v -0.042624 0.068924 0.030571
v -0.023313 1.212422 -0.168093
v -0.007204 1.070054 -0.190174
v -0.053218 1.188105 -0.089213
v 0.088232 1.778493 0.001031
v 0.135801 1.844026 -0.031286
v 0.109670 1.773537 -0.079778
v 0.090132 1.630627 -0.068207
v 0.025379 1.275132 0.228683
v 0.133411 1.446814 0.201379
v 0.062551 1.293556 0.288139
v 0.008533 1.246956 0.251223
v -0.026936 1.226611 0.294797
v 0.183299 1.468431 0.004120
v 0.158158 1.535274 -0.019000
v 0.150834 1.590179 0.051787
v 0.045944 0.852328 -0.156155
v 0.017074 0.901292 -0.184075
v 0.096360 0.998759 -0.197269
v 0.049075 1.034636 0.268940
v 0.116140 1.022153 0.212406
v 0.068186 1.161134 0.226215
v 0.210688 1.305097 0.026135
v 0.192811 1.188866 0.106745
v 0.208414 1.230049 -0.020109
v 0.203722 1.124705 -0.059271
v 0.229633 1.177642 -0.087812
v 0.216357 1.163449 0.016609
v -0.043584 1.404306 -0.152355
v 0.023595 1.540479 -0.180596
v 0.077645 1.485735 -0.206725
v 0.202543 1.341094 -0.067430
v 0.202649 1.386489 0.077528
v 0.165666 1.000522 -0.143495
v -0.031141 0.373241 -0.095090
v 0.026822 0.319761 0.040171
v 0.036467 0.431948 -0.006112
v 0.008144 0.116146 0.008860
v -0.054785 0.183887 -0.007021
v -0.030872 0.084846 -0.045448
v 0.032661 0.257428 -0.096978
v -0.005338 0.145506 -0.090282
v -0.048212 0.212709 -0.059684
v 0.065822 0.163639 -0.048542
v 0.045305 0.100013 -0.089536
v 0.123800 0.086656 -0.047395
v -0.040326 1.398011 0.060470
v 0.134962 0.038819 -0.095966
v 0.086814 0.040514 -0.074489
v 0.038604 0.037751 -0.084308
v 0.091690 0.463473 -0.067978
v 0.055975 0.257813 -0.039351
v 0.178972 1.245302 -0.123147
v 0.108736 1.380158 -0.189526
v 0.089641 1.662275 0.036957
v 0.025597 1.587936 0.023070
v 0.042318 0.539892 -0.116621
v -0.024245 0.545240 -0.041934
v 0.034180 0.720048 -0.130056
v 0.049542 1.149576 0.300579
v -0.019701 1.159433 0.238253
v 0.040521 0.743516 0.036925
v -0.026596 0.877558 0.091599
v -0.074749 0.964342 0.012215
v -0.012281 0.855619 -0.000202
v 0.045962 0.618403 0.007352
v 0.123170 0.723489 0.039881
v 0.172148 1.335518 0.155295
v 0.195998 0.963698 -0.072868
v 0.148705 0.760467 -0.026733
v 0.127364 0.810740 -0.133673
v 0.000381 0.897608 0.218087
v -0.025215 0.934249 0.201605
v 0.011323 0.881293 0.194078
v 0.182901 0.799290 0.175408
v 0.070416 0.919448 0.220182
v -0.001459 0.939689 0.232076
v 0.012621 1.019288 0.249728
v 0.164565 0.565380 0.086432
v 0.115747 0.541484 0.067308
v 0.055464 0.571941 0.096123
v -0.020878 1.075817 0.256363
v 0.096581 1.103245 -0.186106
v 0.005449 1.320732 0.323683
v -0.006851 1.428889 0.225169
v 0.135417 1.562007 0.118317
v 0.088544 1.529816 0.225059
v -0.045898 1.456092 -0.032568
v 0.198827 1.062126 0.018480
v 0.194007 0.951373 0.074298
v 0.146545 1.066300 0.146886
v 0.163626 0.940887 0.179347
v 0.161973 1.577295 -0.016382
v 0.099013 0.667932 0.192421
v 0.186997 0.810021 0.057480
v 0.074776 0.534787 0.161129
v 0.000938 0.365745 0.125880
v 0.061862 0.304439 0.129392
v 0.163124 0.536241 0.164211
v -0.052369 0.916873 -0.130334
v -0.063796 0.204100 0.105895
v -0.074006 1.024617 0.165332
v 0.096497 0.961555 -0.250312
v 0.146303 0.899340 -0.219589
v 0.164312 0.920830 -0.218570
v 0.027984 0.196396 0.023382
v 0.003925 0.151804 0.086830
v -0.026047 0.861866 -0.087534
v 0.000173 1.201082 -0.256687
v 0.045740 1.246188 -0.252690
v 0.077244 1.221429 -0.191585
v 0.151468 1.524093 -0.058760
v 0.166446 1.452392 -0.121272
v 0.150544 1.157035 0.172032
v -0.072490 0.248516 0.051422
v -0.019615 1.393557 -0.231493
v 0.089015 1.088635 -0.251696
v 0.171138 0.922373 -0.238047
v 0.160076 0.964843 -0.210061
v -0.044042 1.228526 -0.215865
v 0.207082 1.689716 0.057784
v 0.258687 1.779976 0.011885
v 0.256124 1.675969 0.023559
v 0.251490 1.706347 -0.026536
v 0.212478 1.610726 0.005013
v 0.171696 1.688914 -0.068013
v 0.194356 1.800043 -0.075340
v 0.208627 1.847769 0.000924
v 0.177193 1.812552 0.050114
v 0.124889 1.718689 0.054925
v 0.035937 0.074554 0.083371
v 0.000170 0.041684 0.106899
vt 0.0000 0.0000
vt 0.0000 0.0000
vt 0.0000 0.0000
vt 0.0000 0.0000
vt 0.0000 0.0000
vt 0.0000 0.0000
vt 0.0000 0.0000
vt 0.0000 0.0000
vt 0.0000 0.0000
vt 0.0000 0.0000
vt 0.0000 0.0000
vt 0.0000 0.0000
vt 0.0000 0.0000
vt 0.0000 0.0000
vt 0.0000 0.0000
vt 0.0000 0.0000
vt 0.0000 0.0000
vt 0.0000 0.0000
vt 0.0000 0.0000
vt 0.0000 0.0000
vt 0.0000 0.0000
vt 0.0000 0.0000
vt 0.0000 0.0000
vt 0.0000 0.0000
vt 0.0000 0.0000
vt 0.0000 0.0000
vt 0.0000 0.0000
vt 0.0000 0.0000
vt 0.0000 0.0000
vt 0.0000 0.0000
vt 0.0000 0.0000
vt 0.0000 0.0000
vt 0.0000 0.0000
vt 0.0000 0.0000
vt 0.0000 0.0000
vt 0.0000 0.0000
vt 0.0000 0.0000
vt 0.0000 0.0000
vt 0.0000 0.0000
vt 0.0000 0.0000
vt 0.0000 0.0000
vt 0.0000 0.0000
vt 0.0000 0.0000
vt 0.0000 0.0000
vt 0.0000 0.0000
vt 0.0000 0.0000
vt 0.0000 0.0000
vt 0.0000 0.0000
vt 0.0000 0.0000
vt 0.0000 0.0000
vt 0.0000 0.0000
vt 0.0000 0.0000
vt 0.0000 0.0000
vt 0.0000 0.0000
vt 0.0000 0.0000
vt 0.0000 0.0000
vt 0.0000 0.0000
vt 0.0000 0.0000
vt 0.0000 0.0000
vt 0.0000 0.0000
vt 0.0000 0.0000
vt 0.0000 0.0000
vt 0.0000 0.0000
vt 0.0000 0.0000
vt 0.0000 0.0000
vt 0.0000 0.0000
vt 0.0000 0.0000
vt 0.0000 0.0000
vt 0.0000 0.0000
vt 0.0000 0.0000
vt 0.0000 0.0000
vt 0.0000 0.0000
vt 0.0000 0.0000
vt 0.0000 0.0000
vt 0.0000 0.0000
vt 0.0000 0.0000
vt 0.0000 0.0000
vt 0.0000 0.0000
vt 0.0000 0.0000
vt 0.0000 0.0000
vt 0.0000 0.0000
vt 0.0000 0.0000
vt 0.0000 0.0000
vt 0.0000 0.0000
vt 0.0000 0.0000
vt 0.0000 0.0000
vt 0.0000 0.0000
vt 0.0000 0.0000
vt 0.0000 0.0000
vt 0.0000 0.0000
vt 0.0000 0.0000
vt 0.0000 0.0000
vt 0.0000 0.0000
vt 0.0000 0.0000
vt 0.0000 0.0000
vt 0.0000 0.0000
vt 0.0000 0.0000
vt 0.0000 0.0000
vt 0.0000 0.0000
vt 0.0000 0.0000
vt 0.0000 0.0000
vt 0.0000 0.0000
vt 0.0000 0.0000
vt 0.0000 0.0000
vt 0.0000 0.0000
vt 0.0000 0.0000
vt 0.0000 0.0000
vt 0.0000 0.0000
vt 0.0000 0.0000
vt 0.0000 0.0000
vt 0.0000 0.0000
vt 0.0000 0.0000
vt 0.0000 0.0000
vt 0.0000 0.0000
vt 0.0000 0.0000
vt 0.0000 0.0000
vt 0.0000 0.0000
vt 0.0000 0.0000
vt 0.0000 0.0000
vt 0.0000 0.0000
vt 0.0000 0.0000
vt 0.0000 0.0000
vt 0.0000 0.0000
vt 0.0000 0.0000
vt 0.0000 0.0000
vt 0.0000 0.0000
vt 0.0000 0.0000
vt 0.0000 0.0000
vt 0.0000 0.0000
vt 0.0000 0.0000
vt 0.0000 0.0000
vt 0.0000 0.0000
vt 0.0000 0.0000
vt 0.0000 0.0000
vn -0.6420 -0.7014 -0.3097
vn -0.9290 -0.0482 -0.3670
vn -0.8380 0.4840 -0.2520
vn -0.9590 0.1100 -0.2612
vn 0.7384 -0.5734 -0.3550
vn 0.9418 0.3059 -0.1398
vn 0.2776 -0.3471 -0.8958
vn 0.6534 0.1518 0.7416
vn 0.9917 -0.0877 0.0935
vn 0.9089 -0.4128 0.0594
vn -0.4196 0.0188 -0.9075
vn 0.9819 0.1806 -0.0573
vn -0.1030 -0.0507 -0.9934
vn 0.5687 -0.3979 -0.7199
vn -0.8439 0.2650 0.4664
vn -0.6121 -0.4101 0.6761
vn -0.4637 0.1048 -0.8798
vn 0.5354 -0.2304 -0.8126
vn 0.3812 0.4107 -0.8283
vn 0.4810 0.3741 0.7929
vn 0.4883 0.3559 -0.7968
vn -0.9524 -0.1360 0.2727
vn -0.3744 -0.4642 -0.8027
vn 0.4297 0.6907 -0.5815
vn 0.2914 -0.6472 0.7044
vn 0.2121 -0.6157 0.7589
vn -0.1980 -0.7809 0.5924
vn 0.9575 0.2182 0.1886
vn -0.4980 -0.0192 -0.8670
vn -0.3828 -0.4395 -0.8126
vn -0.8621 -0.0116 -0.5066
vn 0.3410 -0.1874 -0.9212
vn 0.8062 0.1365 -0.5757
vn -0.2237 0.0106 0.9746
vn -0.5730 0.7367 -0.3592
vn 0.4047 -0.2904 -0.8671
vn -0.8352 0.4148 0.3610
vn -0.7469 -0.0829 -0.6597
vn -0.5999 -0.5521 0.5791
vn -0.9496 0.3134 -0.0080
vn -0.8678 -0.4967 -0.0166
vn -0.8994 -0.4356 -0.0361
vn -0.9122 -0.3996 0.0908
vn -0.3891 -0.2279 0.8926
vn -0.0910 -0.2328 0.9682
vn 0.7555 -0.0402 0.6539
vn 0.8779 0.3925 -0.2744
vn 0.8911 0.1301 0.4348
vn 0.9067 -0.2822 -0.3136
vn -0.8222 -0.5690 0.0119
vn -0.2911 -0.7455 0.5995
vn 0.2180 -0.7581 0.6146
vn 0.0689 -0.3120 0.9476
vn -0.7444 -0.2397 0.6232
vn -0.7889 0.0033 0.6145
vn -0.0273 0.6580 -0.7525
vn -0.3399 -0.3058 0.8893
vn 0.7269 0.2188 -0.6510
vn 0.0950 -0.2315 0.9682
vn -0.2797 -0.4177 0.8644
vn -0.3124 -0.2509 0.9162
vn 0.5877 0.0176 -0.8089
vn 0.0104 0.0851 0.9963
vn 0.6124 0.5693 0.5485
vn 0.8294 0.3171 0.4599
vn -0.8383 0.4016 -0.3686
vn -0.8535 0.5094 -0.1103
vn 0.1863 -0.1751 0.9668
vn 0.0914 0.4582 0.8841
vn 0.8281 0.5381 -0.1570
vn 0.9013 0.3324 0.2776
vn 0.9992 -0.0383 0.0103
vn 0.9179 0.1460 0.3690
vn 0.8033 0.2494 0.5408
vn 0.8152 0.2284 0.5322
vn 0.9702 -0.0680 0.2327
vn 0.9788 -0.1000 0.1788
vn 0.6065 -0.2120 0.7663
vn 0.4213 -0.1195 0.8990
vn 0.8372 -0.5431 -0.0652
vn 0.9900 0.1335 0.0465
vn 0.3956 0.0283 0.9180
vn 0.9351 0.2026 0.2907
vn -0.9387 0.0929 0.3319
vn -0.5387 -0.7904 -0.2917
vn -0.1813 -0.1242 0.9756
vn -0.0303 -0.2235 0.9742
vn 0.9001 0.4023 0.1674
vn -0.9562 0.1976 -0.2159
vn -0.5978 0.7795 -0.1872
vn 0.9987 -0.0506 0.0093
vn 0.9259 -0.2744 -0.2596
vn 0.8065 -0.5910 -0.0189
vn 0.8082 -0.5886 -0.0169
vn -0.9961 0.0832 -0.0279
vn 0.5075 0.4950 0.7053
vn -0.3065 0.2128 0.9278
vn 0.9491 0.0469 0.3114
vn 0.9271 -0.0420 0.3726
vn 0.9326 0.0573 -0.3564
vn 0.9686 0.1983 0.1501
vn 0.9484 -0.2658 0.1729
vn 0.7848 -0.2929 0.5462
vn 0.8931 0.0497 0.4472
vn 0.9185 0.1324 -0.3725
vn 0.8227 0.4587 -0.3359
vn 0.3500 -0.3828 0.8550
vn 0.9976 0.0409 -0.0553
vn 0.6205 -0.6547 -0.4316
vn 0.1619 -0.2049 -0.9653
vn -0.6933 -0.0797 -0.7163
vn -0.5760 -0.6339 -0.5161
vn -0.6978 -0.0916 0.7104
vn 0.6127 -0.5705 -0.5470
vn 0.8591 -0.1978 -0.4721
vn 0.6738 0.5605 -0.4815
vn 0.9468 -0.0997 0.3060
vn 0.9985 -0.0498 0.0228
vn 0.9823 -0.1713 -0.0761
vn 0.9436 -0.1579 0.2910
vn 0.9015 -0.2178 0.3741
vn 0.8630 -0.1699 0.4758
vn 0.5236 -0.2489 0.8148
vn 0.4366 0.0315 0.8991
vn 0.8500 -0.0537 0.5241
vn 0.9601 0.0439 0.2762
vn -0.9781 -0.1054 -0.1798
vn -0.8579 -0.5042 0.0992
vn 0.9917 0.1227 -0.0391
vn 0.9491 0.1432 0.2806
vn -0.6370 -0.4509 0.6253
vn 0.8916 0.2545 0.3745
vn 0.5200 0.7273 -0.4480
vn 0.4978 -0.1782 0.8488
vn -0.0830 -0.7757 0.6256
vn -0.7258 0.6386 0.2559
vn -0.9061 0.3313 -0.2631
vn -0.8015 0.3322 -0.4973
vn -0.6457 0.1703 0.7443
vn -0.8842 0.1107 0.4538
vn -0.9207 0.3692 0.1266
vn -0.9535 -0.1946 0.2303
vn -0.9418 0.3124 0.1238
vn -0.5363 0.6656 -0.5190
vn -0.6195 0.7307 -0.2869
vn 0.7085 0.0947 -0.6993
vn 0.7854 -0.0440 -0.6175
vn 0.5717 -0.1029 -0.8140
vn 0.8488 -0.1619 -0.5032
vn 0.5330 0.3877 -0.7521
vn -0.1375 -0.5249 -0.8400
vn 0.7443 -0.6337 0.2106
vn 0.9427 0.0265 0.3325
vn 0.4169 0.5734 -0.7053
vn 0.6472 -0.5853 -0.4884
vn -0.9976 -0.0583 0.0383
vn -0.6942 0.5092 0.5087
vn 0.9360 0.3302 0.1219
vn 0.5340 0.0222 -0.8452
vn -0.9271 0.0476 0.3718
vn -0.3738 -0.0324 -0.9269
vn -0.9468 0.1115 -0.3019
vn -0.0323 -0.1346 0.9904
vn -0.8954 0.4021 -0.1911
vn 0.9255 0.3396 -0.1678
vn -0.8884 0.3635 0.2802
vn -0.9296 0.3471 0.1239
vn -0.6688 0.6326 0.3905
vn -0.0177 0.9594 0.2816
vn -0.1009 0.9243 0.3680
vn -0.8574 -0.3989 -0.3253
vn -0.1847 0.0452 0.9818
vn 0.9927 -0.0373 -0.1145
vn 0.5849 0.0762 0.8075
vn 0.4027 -0.4893 0.7736
vn 0.8217 -0.4504 -0.3492
vn 0.4876 -0.4465 -0.7503
vn 0.4821 -0.1552 -0.8623
vn 0.8095 0.2075 -0.5493
vn 0.7535 0.4846 -0.4443
vn 0.5234 0.4983 0.6912
vn 0.4732 0.1691 0.8646
vn -0.0139 0.0589 0.9982
vn 0.5871 0.5406 0.6026
vn 0.6350 -0.3987 0.6617
vn 0.4644 -0.8533 0.2372
vn 0.5647 -0.3865 -0.7292
vn 0.3034 -0.4217 -0.8545
vn 0.0663 -0.0895 -0.9938
vn 0.0775 -0.0813 -0.9937
vn -0.1454 0.5968 -0.7891
vn 0.1999 0.8133 -0.5464
vn -0.2455 0.8556 0.4557
vn -0.5418 0.6538 0.5283
vn -0.5513 0.3461 0.7591
vn -0.6867 0.2071 0.6968
vn -0.9999 -0.0124 -0.0009
vn -0.7230 0.6606 -0.2022
vn -0.6903 0.7062 -0.1578
vn 0.6732 0.3289 -0.6623
vn 0.2198 -0.0946 -0.9710
vn 0.2042 -0.1037 -0.9734
vn 0.7051 0.3514 -0.6159
vn 0.9864 -0.0806 -0.1433
vn 0.8487 -0.3059 -0.4315
vn 0.9340 0.2706 -0.2333
vn 0.9591 0.2342 -0.1589
vn 0.9168 -0.0103 -0.3991
vn 0.9563 -0.0703 -0.2837
vn -0.6544 -0.5233 -0.5458
vn 0.6686 -0.5789 -0.4668
vn 0.6096 0.0829 -0.7884
vn -0.9728 -0.2063 -0.1051
vn 0.5492 0.0512 -0.8341
vn 0.9772 0.1531 -0.1468
vn 0.8773 0.4369 -0.1985
vn 0.1415 -0.1055 0.9843
vn 0.1009 -0.1795 0.9786
vn -0.6053 -0.6524 0.4560
vn 0.5464 0.1875 0.8163
vn -0.3964 -0.4991 -0.7706
vn -0.4429 -0.3859 -0.8093
vn -0.9664 -0.0710 -0.2471
vn -0.8362 0.4349 -0.3341
vn -0.9249 -0.1271 0.3585
vn -0.9259 -0.0673 -0.3718
vn -0.9986 0.0494 0.0167
vn -0.1163 -0.2347 0.9651
vn -0.4119 0.4845 -0.7718
vn -0.9353 -0.0675 -0.3474
vn -0.8603 -0.4769 0.1801
vn -0.6242 -0.1177 -0.7724
vn -0.5462 -0.6614 -0.5141
vn -0.9026 -0.4306 0.0017
vn 0.3246 0.2742 -0.9052
vn -0.9164 -0.3709 0.1504
vn -0.8928 -0.3957 0.2151
vn -0.7636 -0.5700 0.3033
vn -0.7923 -0.5241 0.3123
vn -0.1308 -0.4645 0.8759
vn 0.9967 0.0188 -0.0795
vn -0.0461 -0.3294 -0.9431
vn 0.5106 -0.8083 -0.2933
vn -0.8095 0.3795 -0.4481
vn -0.1025 -0.3055 -0.9466
vn 0.5049 0.7067 0.4956
vn 0.8070 -0.5900 -0.0257
vn 0.9128 0.3154 0.2594
vn -0.9020 -0.4168 0.1124
vn 0.8691 -0.3005 -0.3929
vn 0.9597 -0.0797 0.2696
vn -0.3723 -0.3201 0.8712
vn -0.1441 -0.6697 0.7286
vn 0.0180 -0.3218 0.9467
vn -0.7999 -0.0486 0.5981
vn -0.9716 -0.2339 -0.0357
vn 0.2849 -0.6427 0.7111
vn -0.5535 -0.8319 -0.0402
vn 0.3039 -0.0653 -0.9504
vn -0.5701 0.7374 -0.3622
vn 0.8581 -0.1207 -0.4991
vn -0.2494 -0.3247 -0.9123
vn -0.1059 -0.3192 -0.9418
vn 0.4254 -0.7134 -0.5569
vn 0.9144 0.3846 -0.1264
vn 0.4468 0.1456 0.8827
vn 0.3885 -0.7771 -0.4951
vn -0.8462 0.1233 0.5184
vn -0.9971 -0.0747 0.0131
vn -0.1119 -0.4372 0.8924
s 1
f 1/1/1 2/2/1 3/3/1
f 4/4/2 5/5/2 6/6/2
f 7/7/3 8/8/3 9/9/3
f 10/10/4 7/7/4 9/9/4
f 11/11/5 12/12/5 13/13/5 14/14/5 15/15/5
f 16/16/6 17/17/6 18/18/6
f 19/19/7 20/20/7 21/21/7
f 22/22/8 23/23/8 24/24/8
f 25/25/9 26/26/9 27/27/9
f 28/28/10 29/29/10 30/30/10
f 31/31/11 32/32/11 33/33/11
f 34/34/12 16/16/12 35/35/12
f 20/20/13 5/5/13 21/21/13
f 36/36/14 19/19/14 21/21/14
f 37/37/15 38/38/15 39/39/15
f 40/40/16 41/41/16 42/42/16
f 43/43/17 44/44/17 45/45/17
f 44/44/18 43/43/18 46/46/18
f 46/46/19 47/47/19 44/44/19
f 46/46/20 40/40/20 48/48/20
f 47/47/21 46/46/21 48/48/21
f 49/49/22 6/6/22 11/11/22
f 50/50/23 51/51/23 47/47/23
f 48/48/24 50/50/24 47/47/24
f 48/48/25 51/51/25 50/50/25
f 40/40/26 51/51/26 48/48/26
f 42/42/27 52/52/27 40/40/27
f 26/26/28 30/30/28 27/27/28
f 47/47/29 52/52/29 42/42/29
f 44/44/30 47/47/30 42/42/30
f 42/42/31 41/41/31 44/44/31
f 37/37/32 53/53/32 54/54/32
f 34/34/33 55/55/33 56/56/33
f 18/18/34 57/57/34 58/58/34
f 45/45/35 38/38/35 43/43/35
f 59/59/36 53/53/36 37/37/36
f 37/37/37 39/39/37 59/59/37
f 60/60/38 61/61/38 59/59/38
f 62/62/39 15/15/39 63/63/39
f 61/61/40 60/60/40 64/64/40
f 65/65/41 66/66/41 67/67/41
f 64/64/42 65/65/42 67/67/42
f 67/67/43 61/61/43 64/64/43
f 68/68/44 64/64/44 60/60/44
f 69/69/45 64/64/45 68/68/45
f 53/53/46 39/39/46 54/54/46
f 53/53/47 59/59/47 68/68/47
f 12/12/48 70/70/48 35/35/48
f 71/71/49 72/72/49 73/73/49
f 74/74/50 75/75/50 76/76/50
f 76/76/51 64/64/51 77/77/51
f 74/74/52 76/76/52 78/78/52
f 74/74/53 78/78/53 79/79/53
f 75/75/54 74/74/54 79/79/54
f 79/79/55 80/80/55 75/75/55
f 81/81/56 82/82/56 83/83/56
f 80/80/57 22/22/57 84/84/57
f 28/28/58 36/36/58 85/85/58
f 78/78/59 80/80/59 79/79/59
f 80/80/60 78/78/60 22/22/60
f 84/84/61 22/22/61 62/62/61
f 85/85/62 55/55/62 29/29/62
f 62/62/63 13/13/63 15/15/63
f 86/86/64 13/13/64 87/87/64
f 12/12/65 88/88/65 89/89/65
f 15/15/66 86/86/66 11/11/66
f 90/90/67 58/58/67 32/32/67
f 89/89/68 87/87/68 12/12/68
f 87/87/69 13/13/69 12/12/69
f 27/27/70 29/29/70 55/55/70
f 24/24/71 11/11/71 62/62/71
f 91/91/72 92/92/72 71/71/72
f 92/92/73 91/91/73 93/93/73
f 23/23/74 94/94/74 93/93/74
f 24/24/75 23/23/75 93/93/75
f 62/62/76 22/22/76 24/24/76
f 17/17/77 95/95/77 18/18/77
f 78/78/78 23/23/78 22/22/78
f 94/94/79 23/23/79 78/78/79
f 69/69/80 77/77/80 96/96/80
f 77/77/81 97/97/81 94/94/81
f 78/78/82 77/77/82 94/94/82
f 94/94/83 92/92/83 93/93/83
f 98/98/84 96/96/84 83/83/84
f 83/83/85 82/82/85 98/98/85
f 99/99/86 100/100/86 98/98/86
f 96/96/87 98/98/87 101/101/87
f 101/101/88 81/81/88 96/96/88
f 5/5/89 102/102/89 66/66/89
f 41/41/90 2/2/90 103/103/90
f 71/71/91 92/92/91 97/97/91
f 72/72/92 71/71/92 97/97/92
f 69/69/93 72/72/93 97/97/93
f 68/68/94 72/72/94 69/69/94
f 6/6/95 66/66/95 104/104/95
f 39/39/96 53/53/96 60/60/96
f 105/105/97 106/106/97 107/107/97
f 54/54/98 39/39/98 38/38/98
f 38/38/99 108/108/99 54/54/99
f 108/108/100 38/38/100 100/100/100
f 29/29/101 27/27/101 30/30/101
f 108/108/102 109/109/102 40/40/102
f 46/46/103 108/108/103 40/40/103
f 54/54/104 108/108/104 46/46/104
f 43/43/105 54/54/105 46/46/105
f 43/43/106 37/37/106 54/54/106
f 13/13/107 86/86/107 15/15/107
f 59/59/108 61/61/108 68/68/108
f 73/73/109 72/72/109 61/61/109
f 61/61/110 19/19/110 73/73/110
f 110/110/111 19/19/111 61/61/111
f 19/19/112 110/110/112 20/20/112
f 80/80/113 104/104/113 75/75/113
f 111/111/114 112/112/114 113/113/114
f 71/71/115 73/73/115 36/36/115
f 114/114/116 115/115/116 33/33/116
f 25/25/117 35/35/117 70/70/117
f 91/91/118 71/71/118 28/28/118
f 30/30/119 91/91/119 28/28/119
f 91/91/120 30/30/120 26/26/120
f 93/93/121 91/91/121 26/26/121
f 93/93/122 26/26/122 116/116/122
f 24/24/123 93/93/123 116/116/123
f 70/70/124 11/11/124 116/116/124
f 26/26/125 70/70/125 116/116/125
f 26/26/126 25/25/126 70/70/126
f 45/45/127 41/41/127 117/117/127
f 66/66/128 110/110/128 67/67/128
f 25/25/129 34/34/129 35/35/129
f 18/18/130 88/88/130 16/16/130
f 80/80/131 84/84/131 104/104/131
f 88/88/132 12/12/132 35/35/132
f 114/114/133 33/33/133 32/32/133
f 11/11/134 70/70/134 12/12/134
f 52/52/135 51/51/135 40/40/135
f 14/14/136 13/13/136 11/11/136
f 14/14/137 11/11/137 63/63/137
f 15/15/138 14/14/138 63/63/138
f 84/84/139 62/62/139 63/63/139
f 104/104/140 84/84/140 63/63/140
f 11/11/141 6/6/141 63/63/141
f 87/87/142 49/49/142 11/11/142
f 6/6/143 104/104/143 63/63/143
f 38/38/144 117/117/144 99/99/144
f 118/118/145 31/31/145 33/33/145
f 56/56/146 33/33/146 115/115/146
f 115/115/147 34/34/147 56/56/147
f 56/56/148 55/55/148 113/113/148
f 113/113/149 112/112/149 56/56/149
f 119/119/150 111/111/150 113/113/150
f 120/120/151 106/106/151 105/105/151
f 120/120/152 107/107/152 106/106/152
f 121/121/153 107/107/153 120/120/153
f 120/120/154 105/105/154 121/121/154
f 61/61/155 72/72/155 68/68/155
f 105/105/156 21/21/156 119/119/156
f 64/64/157 96/96/157 77/77/157
f 88/88/158 35/35/158 16/16/158
f 105/105/159 119/119/159 121/121/159
f 64/64/160 83/83/160 96/96/160
f 118/118/161 112/112/161 122/122/161
f 118/118/162 122/122/162 31/31/162
f 100/100/163 101/101/163 98/98/163
f 31/31/164 90/90/164 32/32/164
f 115/115/165 114/114/165 16/16/165
f 49/49/166 58/58/166 90/90/166
f 87/87/167 58/58/167 49/49/167
f 89/89/168 58/58/168 87/87/168
f 88/88/169 58/58/169 89/89/169
f 88/88/170 18/18/170 58/58/170
f 41/41/171 45/45/171 44/44/171
f 18/18/172 123/123/172 57/57/172
f 124/124/173 125/125/173 126/126/173
f 125/125/174 124/124/174 123/123/174
f 127/127/175 125/125/175 123/123/175
f 126/126/176 125/125/176 127/127/176
f 128/128/177 126/126/177 127/127/177
f 129/129/178 126/126/178 128/128/178
f 124/124/179 126/126/179 129/129/179
f 130/130/180 124/124/180 129/129/180
f 131/131/181 124/124/181 130/130/181
f 123/123/182 124/124/182 131/131/182
f 132/132/183 123/123/183 131/131/183
f 103/103/184 109/109/184 108/108/184
f 127/127/185 123/123/185 18/18/185
f 95/95/186 127/127/186 18/18/186
f 128/128/187 127/127/187 95/95/187
f 10/10/188 128/128/188 95/95/188
f 9/9/189 128/128/189 10/10/189
f 129/129/190 128/128/190 9/9/190
f 8/8/191 129/129/191 9/9/191
f 130/130/192 129/129/192 8/8/192
f 131/131/193 130/130/193 8/8/193
f 7/7/194 131/131/194 8/8/194
f 132/132/195 131/131/195 7/7/195
f 57/57/196 132/132/196 7/7/196
f 10/10/197 57/57/197 7/7/197
f 58/58/198 57/57/198 10/10/198
f 32/32/199 58/58/199 10/10/199
f 10/10/200 114/114/200 32/32/200
f 36/36/201 73/73/201 19/19/201
f 51/51/202 52/52/202 47/47/202
f 95/95/203 114/114/203 10/10/203
f 95/95/204 17/17/204 114/114/204
f 82/82/205 101/101/205 100/100/205
f 114/114/206 17/17/206 16/16/206
f 34/34/207 115/115/207 16/16/207
f 28/28/208 71/71/208 36/36/208
f 34/34/209 27/27/209 55/55/209
f 39/39/210 60/60/210 59/59/210
f 29/29/211 28/28/211 85/85/211
f 21/21/212 85/85/212 36/36/212
f 86/86/213 87/87/213 11/11/213
f 113/113/214 55/55/214 85/85/214
f 119/119/215 113/113/215 85/85/215
f 121/121/216 119/119/216 85/85/216
f 21/21/217 121/121/217 85/85/217
f 107/107/218 121/121/218 21/21/218
f 21/21/219 105/105/219 107/107/219
f 11/11/220 24/24/220 116/116/220
f 119/119/221 21/21/221 5/5/221
f 111/111/222 119/119/222 5/5/222
f 5/5/223 4/4/223 111/111/223
f 82/82/224 99/99/224 98/98/224
f 31/31/225 122/122/225 4/4/225
f 6/6/226 31/31/226 4/4/226
f 6/6/227 49/49/227 31/31/227
f 123/123/228 132/132/228 57/57/228
f 112/112/229 111/111/229 122/122/229
f 6/6/230 5/5/230 66/66/230
f 38/38/231 37/37/231 43/43/231
f 20/20/232 102/102/232 5/5/232
f 110/110/233 102/102/233 20/20/233
f 66/66/234 102/102/234 110/110/234
f 118/118/235 56/56/235 112/112/235
f 104/104/236 66/66/236 65/65/236
f 75/75/237 104/104/237 65/65/237
f 76/76/238 75/75/238 65/65/238
f 65/65/239 64/64/239 76/76/239
f 53/53/240 68/68/240 60/60/240
f 25/25/241 27/27/241 34/34/241
f 69/69/242 83/83/242 64/64/242
f 81/81/243 101/101/243 82/82/243
f 38/38/244 99/99/244 82/82/244
f 69/69/245 81/81/245 83/83/245
f 103/103/246 108/108/246 117/117/246
f 97/97/247 77/77/247 69/69/247
f 81/81/248 69/69/248 96/96/248
f 67/67/249 110/110/249 61/61/249
f 38/38/250 82/82/250 100/100/250
f 97/97/251 92/92/251 94/94/251
f 99/99/252 117/117/252 100/100/252
f 108/108/253 100/100/253 117/117/253
f 103/103/254 1/1/254 109/109/254
f 2/2/255 1/1/255 103/103/255
f 117/117/256 41/41/256 103/103/256
f 109/109/257 1/1/257 3/3/257
f 4/4/258 122/122/258 111/111/258
f 118/118/259 33/33/259 56/56/259
f 38/38/260 45/45/260 117/117/260
f 11/11/261 13/13/261 62/62/261
f 3/3/262 2/2/262 41/41/262
f 40/40/263 3/3/263 41/41/263
f 40/40/264 133/133/264 3/3/264
f 109/109/265 133/133/265 40/40/265
f 133/133/266 109/109/266 134/134/266
f 3/3/267 133/133/267 134/134/267
f 134/134/268 109/109/268 3/3/268
f 49/49/269 90/90/269 31/31/269
f 77/77/270 78/78/270 76/76/270
