<?xml version="1.0" encoding="utf-8"?>
<!-- Generator: Adobe Illustrator 28.3.0, SVG Export Plug-In . SVG Version: 6.00 Build 0)  -->
<svg version="1.1" id="レイヤー_1" xmlns="http://www.w3.org/2000/svg" xmlns:xlink="http://www.w3.org/1999/xlink" x="0px"
	 y="0px" viewBox="0 0 1920 1080" style="enable-background:new 0 0 1920 1080;" xml:space="preserve">
<style type="text/css">
	.st0{fill:#812990;}
</style>
<path class="st0" d="M746.8,603v-16L735,603H746.8z M764.9,592.1c-3.7,0-6.4,3.7-6.4,8.5v0.5c0.3,4.5,2.9,8.3,6.4,8.3
	s6.1-3.7,6.1-8.8C771,595.6,768.3,592.1,764.9,592.1z M634.9,615.6H780V465.3L634.9,615.6z M753.4,603.8H750v5.6h-3.2v-5.6h-13.6
	l17-22.6V603h3.5v0.8H753.4z M764.9,610c-5.3,0-9.6-4.3-9.6-9.6v-0.3c-0.3-7.5,0.5-11.2,1.9-14.1c1.3-2.9,4.3-5.1,7.7-5.1
	c4.3,0,8,2.9,8.8,7.2h-1.1c-0.5-3.2-2.9-5.9-6.1-6.4c-5.1-0.5-8.3,4.8-8,11.7c1.6-1.9,4-2.7,6.4-2.9c5.3,0,9.6,4.3,9.6,9.6l0,0
	c0.3,5.1-3.7,9.6-8.8,9.9C765.4,610,765.1,610,764.9,610z M1075.1,519.7c-2.7,1.9-5.6,3.5-8.8,4.5v-30.4h10.1v-2.4h-10.1v-25.6
	h-10.9v25.6h-13v2.4h13v32.8c-4.3,0.5-8.8,1.1-13,1.1l2.7,8C1070.1,531.4,1075.1,519.7,1075.1,519.7z M1083.9,471.7v1.9
	c0.3,10.7,0.8,46.3-4,61.8c-3.2,9.9-7.7,18.1-12.5,21.8c9.1-3.2,19.2-10.7,23.2-20.2c3.7-9.9,4.3-18.6,4.8-37.3v-1.9h30.6v2.1
	c0,10.9-2.7,21.8-7.5,31.7c-3.7-8.3-5.9-16.8-6.4-25.6l-13,2.4c3.7,10.7,9.1,20.5,16.2,29.3c-5.1,7.5-12.3,15.7-18.9,18.9
	c9.1-2.4,17.3-6.7,24.2-12.8c5.3,5.6,11.5,10.1,18.4,13.3c-5.9-4.5-10.9-10.1-14.9-16.5c1.6-1.9,2.9-3.7,4.3-5.9
	c9.9-15.7,10.9-33.3,10.9-39.1h-43.7v-1.9c0.3-6.4,0.3-13,0.3-20v-2.1h46.1v-2.1h-57.8v2.1H1083.9z M884.7,469.3h-57.8
	c0,0,1.6,51.1-3.7,67.6c-3.2,9.9-8.3,18.1-12.8,21.8c9.1-3.2,19.2-10.7,23.2-20.2c3.7-9.9,5.1-38.1,5.3-65v-1.9h33.3l-8,35.2h25.6
	v1.9c0,7.7-0.5,31.7-8,40.7c-3.2,3.7-8.8,5.9-16.5,5.9h-5.9c3.7,1.3,7.5,1.9,11.2,1.9c8.5,0.3,16.5-3.2,22.1-9.6
	c6.9-8.8,8.8-35.2,9.1-42.9h-25.3L884.7,469.3z M979.3,465.9h-11.7v22.9h-43.7v2.1h18.6v1.9c0,10.4-0.3,29.6-4.3,42.1
	c-2.1,7.7-6.4,14.6-12.3,20c8.8-3.2,18.9-8.5,22.9-18.4c3.7-10.1,5.3-20.2,5.3-43.4v-2.1h13.3v66h11.7v-66h13.3v2.1
	c0.3,23.2,1.1,32.8,5.3,43.4c4.3,10.9,14.1,15.4,23.2,18.4c-5.9-5.3-10.4-12.3-12.5-20c-3.7-12.5-4.3-32-4-42.1v-1.9h18.9v-2.1
	h-44.2V465.9z M1208.8,531.4v-67.6l-52.2,70.8h42.1v17.3h10.4v-17.3h10.9v-3.2H1208.8z M1198.7,531.4h-36.2l36.2-49V531.4z
	 M1255.7,494.4c-7.7,0-14.9,3.2-20.2,8.5c-1.1-21.3,8.8-38.4,25-36.2c9.9,1.6,17.3,9.6,18.9,19.2l3.2-0.5
	c-2.4-13-14.1-22.4-27.2-22.1c-10.1,0.5-19.2,6.4-23.7,15.7c-4.3,9.1-6.7,20.8-5.6,43.7c1.1,22.9,14.1,30.9,29.8,30.9
	c16,0,29-13,29-29c0-0.3,0-0.3,0-0.5c0.3-16-12.5-29.3-28.5-29.6C1256,494.4,1256,494.4,1255.7,494.4z M1254.9,550.3
	c-10.7,0-18.9-10.9-19.4-25.3v-1.1c0-14.6,8.8-26.4,19.4-26.4c10.9,0,19.7,11.7,19.7,26.4S1265.8,550.3,1254.9,550.3z M846.6,596.9
	c0-12.3-9.1-17.8-18.1-17.8l0,0c-0.8,0-1.6,0-2.1,0c-9.3,0.5-16.2,8.5-15.7,17.8c0,10.9,7.2,18.4,17.8,18.4c0.3,0,0.5,0,0.8,0
	c0.3,0,0.8,0,1.1,0C839.7,614.8,847.2,606.5,846.6,596.9z M840.5,596.9c0,9.9-4.8,16-12.3,16s-12-6.1-12-16c0-11.5,6.1-15.4,12-15.4
	C834.4,581.5,840.5,586.3,840.5,596.9z M860.2,581.7v15.4h14.1v2.4h-14.1V615h-5.6v-35.7h22.6v2.4H860.2z M890.3,581.7v15.4h14.1
	v2.4h-14.1V615h-5.6v-35.7h22.9v2.4H890.3z M920.7,579.3v35.4h-5.6v-35.4H920.7z M956.1,605.7l1.9,1.3l-0.3,0.5
	c-2.1,4.8-6.9,7.7-12.3,7.7c-0.3,0-0.3,0-0.5,0c-9.6,0-16.2-7.5-16.2-18.1c0-10.7,6.7-18.1,16.2-18.1c5.3-0.3,10.4,2.7,12.8,7.5
	l0.3,0.5l-1.9,1.3l-0.3-0.5c-1.9-3.7-5.9-6.4-10.1-6.4l0,0c-5.3,0-10.9,4.3-10.9,15.7s5.6,15.7,10.9,15.7l0,0
	c4.3,0,8.3-2.7,10.1-6.7L956.1,605.7z M972.6,579.3v35.4h-5.9v-35.4H972.6z M995.2,578L979,614.8h2.4l4.8-10.9h14.1l4.8,10.9h6.4
	L995.2,578z M987.5,601.4l5.9-13.3l5.9,13.3H987.5z M1040.5,612.4v2.4h-22.6v-35.4h5.6v33C1023.5,612.4,1040.5,612.4,1040.5,612.4z
	 M1097.5,579.3l-12.8,37.3l-10.1-26.9l-9.9,27.2l-13-37.3h6.1l8.5,25.3l9.9-26.9l9.9,26.6l8.8-25.3
	C1094.8,579.3,1097.5,579.3,1097.5,579.3z M1109.8,581.7v13.8h14.1v2.4h-14.1v14.6h17v2.4h-22.9v-35.7h22.9v2.4H1109.8z
	 M1153.4,595.8c2.9-1.3,4.8-4.3,4.8-7.5c0-5.6-4.5-9.1-12.5-9.1h-11.5v35.4h12.5c9.1,0,13.3-5.1,13.3-9.9
	C1160.1,600.6,1157.7,597.4,1153.4,595.8z M1148.1,581.7c1.9,0.3,3.5,1.3,4.3,2.9c1.1,1.6,1.3,3.2,1.1,5.1c-0.8,3.7-4.3,6.1-8,5.3
	h-5.3v-13.3h5.3C1146.5,581.5,1147.3,581.5,1148.1,581.7z M1140.1,612.4v-15.2h6.4c0.5,0,0.8,0,1.3,0c1.9,0.3,3.7,1.1,4.8,2.4
	c1.3,1.3,1.9,3.2,1.6,5.3c0,0.3,0,0.5,0,0.8c-0.3,4-3.7,7.2-7.7,6.9h-6.4V612.4z M1204.3,604.4c0,7.2-6.7,10.9-12.8,10.9
	c-0.3,0-0.5,0-0.8,0c-5.1,0-9.9-3.2-12-8l-0.3-0.5l1.9-1.3l0.3,0.8c1.6,4,5.6,6.7,9.9,6.7h0.3c4.5,0,9.1-2.1,9.1-7.2
	c0-4-1.3-4.5-5.3-5.9c-0.8-0.3-1.9-0.5-2.9-1.1l-0.8-0.3c-5.6-2.1-9.6-3.7-9.6-10.1c0-6.1,5.9-9.6,11.5-9.6c5.9,0,9.6,2.4,10.9,7.2
	v0.5l-1.9,1.3l-0.3-0.8c-1.1-3.7-4.5-6.1-8.3-5.6c-1.9,0-7.7,0.5-7.7,5.9c0,3.7,0.5,4,4.3,5.3c0.8,0.3,1.6,0.5,2.4,0.8h0.3
	C1197.9,595.3,1204.3,597.4,1204.3,604.4z M1218.4,579.3v35.4h-5.6v-35.4H1218.4z M1254.9,579.3v2.4h-11.7v33h-5.9v-33h-11.7v-2.4
	H1254.9z M1267.4,581.7v13.8h14.1v2.4h-14.1v14.6h17v2.4h-22.9v-35.7h22.9v2.4H1267.4z"/>
</svg>
